{"ticksPerQuarter":192,"timeSignatures":[{"time":0,"numerator":6,"denominator":8}],"tempos":[{"time":0,"qpm":200}],"notes":[{"pitch":62,"velocity":108,"startTime":0,"endTime":0.3,"instrument":0,"program":0,"isDrum":false},{"pitch":62,"velocity":108,"startTime":0.3,"endTime":0.44999999999999996,"instrument":0,"program":0,"isDrum":false},{"pitch":62,"velocity":108,"startTime":0.44999999999999996,"endTime":0.75,"instrument":0,"program":0,"isDrum":false},{"pitch":62,"velocity":108,"startTime":0.75,"endTime":0.8999999999999999,"instrument":0,"program":0,"isDrum":false},{"pitch":62,"velocity":108,"startTime":0.8999999999999999,"endTime":1.2,"instrument":0,"program":0,"isDrum":false},{"pitch":62,"velocity":108,"startTime":1.2,"endTime":1.3499999999999999,"instrument":0,"program":0,"isDrum":false},{"pitch":62,"velocity":108,"startTime":1.3499999999999999,"endTime":1.5,"instrument":0,"program":0,"isDrum":false},{"pitch":62,"velocity":108,"startTime":1.5,"endTime":1.65,"instrument":0,"program":0,"isDrum":false},{"pitch":62,"velocity":108,"startTime":1.65,"endTime":1.7999999999999998,"instrument":0,"program":0,"isDrum":false},{"pitch":62,"velocity":108,"startTime":1.7999999999999998,"endTime":2.1,"instrument":0,"program":0,"isDrum":false},{"pitch":62,"velocity":108,"startTime":2.1,"endTime":2.25,"instrument":0,"program":0,"isDrum":false},{"pitch":62,"velocity":108,"startTime":2.25,"endTime":2.55,"instrument":0,"program":0,"isDrum":false},{"pitch":62,"velocity":108,"startTime":2.55,"endTime":2.6999999999999997,"instrument":0,"program":0,"isDrum":false},{"pitch":62,"velocity":108,"startTime":2.6999999999999997,"endTime":3,"instrument":0,"program":0,"isDrum":false},{"pitch":62,"velocity":108,"startTime":3,"endTime":3.15,"instrument":0,"program":0,"isDrum":false},{"pitch":62,"velocity":108,"startTime":3.15,"endTime":3.3,"instrument":0,"program":0,"isDrum":false},{"pitch":62,"velocity":108,"startTime":3.3,"endTime":3.4499999999999997,"instrument":0,"program":0,"isDrum":false},{"pitch":62,"velocity":108,"startTime":3.4499999999999997,"endTime":3.5999999999999996,"instrument":0,"program":0,"isDrum":false},{"pitch":62,"velocity":108,"startTime":3.5999999999999996,"endTime":3.9,"instrument":0,"program":0,"isDrum":false},{"pitch":62,"velocity":108,"startTime":3.9,"endTime":4.05,"instrument":0,"program":0,"isDrum":false},{"pitch":62,"velocity":108,"startTime":4.05,"endTime":4.35,"instrument":0,"program":0,"isDrum":false},{"pitch":62,"velocity":108,"startTime":4.35,"endTime":4.5,"instrument":0,"program":0,"isDrum":false},{"pitch":62,"velocity":108,"startTime":4.5,"endTime":4.8,"instrument":0,"program":0,"isDrum":false},{"pitch":62,"velocity":108,"startTime":4.8,"endTime":4.95,"instrument":0,"program":0,"isDrum":false},{"pitch":62,"velocity":108,"startTime":4.95,"endTime":5.1,"instrument":0,"program":0,"isDrum":false},{"pitch":57,"velocity":108,"startTime":5.1,"endTime":5.25,"instrument":0,"program":0,"isDrum":false},{"pitch":60,"velocity":108,"startTime":5.25,"endTime":5.3999999999999995,"instrument":0,"program":0,"isDrum":false},{"pitch":53,"velocity":108,"startTime":5.3999999999999995,"endTime":5.7,"instrument":0,"program":0,"isDrum":false},{"pitch":57,"velocity":108,"startTime":5.3999999999999995,"endTime":5.7,"instrument":0,"program":0,"isDrum":false},{"pitch":62,"velocity":108,"startTime":5.3999999999999995,"endTime":5.7,"instrument":0,"program":0,"isDrum":false},{"pitch":53,"velocity":108,"startTime":5.7,"endTime":6,"instrument":0,"program":0,"isDrum":false},{"pitch":57,"velocity":108,"startTime":5.7,"endTime":6,"instrument":0,"program":0,"isDrum":false},{"pitch":62,"velocity":108,"startTime":5.7,"endTime":6,"instrument":0,"program":0,"isDrum":false},{"pitch":53,"velocity":108,"startTime":6,"endTime":6.1499999999999995,"instrument":0,"program":0,"isDrum":false},{"pitch":57,"velocity":108,"startTime":6,"endTime":6.1499999999999995,"instrument":0,"program":0,"isDrum":false},{"pitch":62,"velocity":108,"startTime":6,"endTime":6.1499999999999995,"instrument":0,"program":0,"isDrum":false},{"pitch":57,"velocity":108,"startTime":6.1499999999999995,"endTime":6.3,"instrument":0,"program":0,"isDrum":false},{"pitch":60,"velocity":108,"startTime":6.1499999999999995,"endTime":6.3,"instrument":0,"program":0,"isDrum":false},{"pitch":64,"velocity":108,"startTime":6.1499999999999995,"endTime":6.3,"instrument":0,"program":0,"isDrum":false},{"pitch":58,"velocity":108,"startTime":6.3,"endTime":6.6,"instrument":0,"program":0,"isDrum":false},{"pitch":62,"velocity":108,"startTime":6.3,"endTime":6.6,"instrument":0,"program":0,"isDrum":false},{"pitch":65,"velocity":108,"startTime":6.3,"endTime":6.6,"instrument":0,"program":0,"isDrum":false},{"pitch":58,"velocity":108,"startTime":6.6,"endTime":6.8999999999999995,"instrument":0,"program":0,"isDrum":false},{"pitch":62,"velocity":108,"startTime":6.6,"endTime":6.8999999999999995,"instrument":0,"program":0,"isDrum":false},{"pitch":65,"velocity":108,"startTime":6.6,"endTime":6.8999999999999995,"instrument":0,"program":0,"isDrum":false},{"pitch":58,"velocity":108,"startTime":6.8999999999999995,"endTime":7.05,"instrument":0,"program":0,"isDrum":false},{"pitch":62,"velocity":108,"startTime":6.8999999999999995,"endTime":7.05,"instrument":0,"program":0,"isDrum":false},{"pitch":65,"velocity":108,"startTime":6.8999999999999995,"endTime":7.05,"instrument":0,"program":0,"isDrum":false},{"pitch":62,"velocity":108,"startTime":7.05,"endTime":7.199999999999999,"instrument":0,"program":0,"isDrum":false},{"pitch":67,"velocity":108,"startTime":7.05,"endTime":7.199999999999999,"instrument":0,"program":0,"isDrum":false},{"pitch":57,"velocity":108,"startTime":7.199999999999999,"endTime":7.5,"instrument":0,"program":0,"isDrum":false},{"pitch":60,"velocity":108,"startTime":7.199999999999999,"endTime":7.5,"instrument":0,"program":0,"isDrum":false},{"pitch":64,"velocity":108,"startTime":7.199999999999999,"endTime":7.5,"instrument":0,"program":0,"isDrum":false},{"pitch":57,"velocity":108,"startTime":7.5,"endTime":7.8,"instrument":0,"program":0,"isDrum":false},{"pitch":60,"velocity":108,"startTime":7.5,"endTime":7.8,"instrument":0,"program":0,"isDrum":false},{"pitch":64,"velocity":108,"startTime":7.5,"endTime":7.8,"instrument":0,"program":0,"isDrum":false},{"pitch":57,"velocity":108,"startTime":7.8,"endTime":7.949999999999999,"instrument":0,"program":0,"isDrum":false},{"pitch":62,"velocity":108,"startTime":7.8,"endTime":7.949999999999999,"instrument":0,"program":0,"isDrum":false},{"pitch":55,"velocity":108,"startTime":7.949999999999999,"endTime":8.1,"instrument":0,"program":0,"isDrum":false},{"pitch":60,"velocity":108,"startTime":7.949999999999999,"endTime":8.1,"instrument":0,"program":0,"isDrum":false},{"pitch":57,"velocity":108,"startTime":8.1,"endTime":8.25,"instrument":0,"program":0,"isDrum":false},{"pitch":60,"velocity":108,"startTime":8.1,"endTime":8.25,"instrument":0,"program":0,"isDrum":false},{"pitch":57,"velocity":108,"startTime":8.25,"endTime":8.549999999999999,"instrument":0,"program":0,"isDrum":false},{"pitch":62,"velocity":108,"startTime":8.25,"endTime":8.549999999999999,"instrument":0,"program":0,"isDrum":false},{"pitch":57,"velocity":108,"startTime":8.7,"endTime":8.85,"instrument":0,"program":0,"isDrum":false},{"pitch":60,"velocity":108,"startTime":8.85,"endTime":9,"instrument":0,"program":0,"isDrum":false},{"pitch":53,"velocity":108,"startTime":9,"endTime":9.299999999999999,"instrument":0,"program":0,"isDrum":false},{"pitch":58,"velocity":108,"startTime":9,"endTime":9.299999999999999,"instrument":0,"program":0,"isDrum":false},{"pitch":62,"velocity":108,"startTime":9,"endTime":9.299999999999999,"instrument":0,"program":0,"isDrum":false},{"pitch":53,"velocity":108,"startTime":9.299999999999999,"endTime":9.6,"instrument":0,"program":0,"isDrum":false},{"pitch":58,"velocity":108,"startTime":9.299999999999999,"endTime":9.6,"instrument":0,"program":0,"isDrum":false},{"pitch":62,"velocity":108,"startTime":9.299999999999999,"endTime":9.6,"instrument":0,"program":0,"isDrum":false},{"pitch":58,"velocity":108,"startTime":9.6,"endTime":9.75,"instrument":0,"program":0,"isDrum":false},{"pitch":62,"velocity":108,"startTime":9.6,"endTime":9.75,"instrument":0,"program":0,"isDrum":false},{"pitch":58,"velocity":108,"startTime":9.75,"endTime":9.9,"instrument":0,"program":0,"isDrum":false},{"pitch":64,"velocity":108,"startTime":9.75,"endTime":9.9,"instrument":0,"program":0,"isDrum":false},{"pitch":57,"velocity":108,"startTime":9.9,"endTime":10.2,"instrument":0,"program":0,"isDrum":false},{"pitch":60,"velocity":108,"startTime":9.9,"endTime":10.2,"instrument":0,"program":0,"isDrum":false},{"pitch":65,"velocity":108,"startTime":9.9,"endTime":10.2,"instrument":0,"program":0,"isDrum":false},{"pitch":57,"velocity":108,"startTime":10.2,"endTime":10.5,"instrument":0,"program":0,"isDrum":false},{"pitch":60,"velocity":108,"startTime":10.2,"endTime":10.5,"instrument":0,"program":0,"isDrum":false},{"pitch":65,"velocity":108,"startTime":10.2,"endTime":10.5,"instrument":0,"program":0,"isDrum":false},{"pitch":60,"velocity":108,"startTime":10.5,"endTime":10.65,"instrument":0,"program":0,"isDrum":false},{"pitch":65,"velocity":108,"startTime":10.5,"endTime":10.65,"instrument":0,"program":0,"isDrum":false},{"pitch":60,"velocity":108,"startTime":10.65,"endTime":10.799999999999999,"instrument":0,"program":0,"isDrum":false},{"pitch":67,"velocity":108,"startTime":10.65,"endTime":10.799999999999999,"instrument":0,"program":0,"isDrum":false},{"pitch":57,"velocity":108,"startTime":10.799999999999999,"endTime":11.1,"instrument":0,"program":0,"isDrum":false},{"pitch":60,"velocity":108,"startTime":10.799999999999999,"endTime":11.1,"instrument":0,"program":0,"isDrum":false},{"pitch":64,"velocity":108,"startTime":10.799999999999999,"endTime":11.1,"instrument":0,"program":0,"isDrum":false},{"pitch":57,"velocity":108,"startTime":11.1,"endTime":11.4,"instrument":0,"program":0,"isDrum":false},{"pitch":60,"velocity":108,"startTime":11.1,"endTime":11.4,"instrument":0,"program":0,"isDrum":false},{"pitch":64,"velocity":108,"startTime":11.1,"endTime":11.4,"instrument":0,"program":0,"isDrum":false},{"pitch":57,"velocity":108,"startTime":11.4,"endTime":11.549999999999999,"instrument":0,"program":0,"isDrum":false},{"pitch":62,"velocity":108,"startTime":11.4,"endTime":11.549999999999999,"instrument":0,"program":0,"isDrum":false},{"pitch":55,"velocity":108,"startTime":11.549999999999999,"endTime":11.7,"instrument":0,"program":0,"isDrum":false},{"pitch":60,"velocity":108,"startTime":11.549999999999999,"endTime":11.7,"instrument":0,"program":0,"isDrum":false},{"pitch":53,"velocity":108,"startTime":11.7,"endTime":12,"instrument":0,"program":0,"isDrum":false},{"pitch":57,"velocity":108,"startTime":11.7,"endTime":12,"instrument":0,"program":0,"isDrum":false},{"pitch":62,"velocity":108,"startTime":11.7,"endTime":12,"instrument":0,"program":0,"isDrum":false},{"pitch":57,"velocity":108,"startTime":12.299999999999999,"endTime":12.45,"instrument":0,"program":0,"isDrum":false},{"pitch":60,"velocity":108,"startTime":12.45,"endTime":12.6,"instrument":0,"program":0,"isDrum":false},{"pitch":53,"velocity":108,"startTime":12.6,"endTime":12.9,"instrument":0,"program":0,"isDrum":false},{"pitch":57,"velocity":108,"startTime":12.6,"endTime":12.9,"instrument":0,"program":0,"isDrum":false},{"pitch":62,"velocity":108,"startTime":12.6,"endTime":12.9,"instrument":0,"program":0,"isDrum":false},{"pitch":53,"velocity":108,"startTime":12.9,"endTime":13.2,"instrument":0,"program":0,"isDrum":false},{"pitch":57,"velocity":108,"startTime":12.9,"endTime":13.2,"instrument":0,"program":0,"isDrum":false},{"pitch":62,"velocity":108,"startTime":12.9,"endTime":13.2,"instrument":0,"program":0,"isDrum":false},{"pitch":57,"velocity":108,"startTime":13.2,"endTime":13.35,"instrument":0,"program":0,"isDrum":false},{"pitch":62,"velocity":108,"startTime":13.2,"endTime":13.35,"instrument":0,"program":0,"isDrum":false},{"pitch":57,"velocity":108,"startTime":13.35,"endTime":13.5,"instrument":0,"program":0,"isDrum":false},{"pitch":65,"velocity":108,"startTime":13.35,"endTime":13.5,"instrument":0,"program":0,"isDrum":false},{"pitch":58,"velocity":108,"startTime":13.5,"endTime":13.799999999999999,"instrument":0,"program":0,"isDrum":false},{"pitch":62,"velocity":108,"startTime":13.5,"endTime":13.799999999999999,"instrument":0,"program":0,"isDrum":false},{"pitch":67,"velocity":108,"startTime":13.5,"endTime":13.799999999999999,"instrument":0,"program":0,"isDrum":false},{"pitch":58,"velocity":108,"startTime":13.799999999999999,"endTime":14.1,"instrument":0,"program":0,"isDrum":false},{"pitch":62,"velocity":108,"startTime":13.799999999999999,"endTime":14.1,"instrument":0,"program":0,"isDrum":false},{"pitch":67,"velocity":108,"startTime":13.799999999999999,"endTime":14.1,"instrument":0,"program":0,"isDrum":false},{"pitch":62,"velocity":108,"startTime":14.1,"endTime":14.25,"instrument":0,"program":0,"isDrum":false},{"pitch":67,"velocity":108,"startTime":14.1,"endTime":14.25,"instrument":0,"program":0,"isDrum":false},{"pitch":62,"velocity":108,"startTime":14.25,"endTime":14.399999999999999,"instrument":0,"program":0,"isDrum":false},{"pitch":69,"velocity":108,"startTime":14.25,"endTime":14.399999999999999,"instrument":0,"program":0,"isDrum":false},{"pitch":62,"velocity":108,"startTime":14.399999999999999,"endTime":14.7,"instrument":0,"program":0,"isDrum":false},{"pitch":67,"velocity":108,"startTime":14.399999999999999,"endTime":14.7,"instrument":0,"program":0,"isDrum":false},{"pitch":70,"velocity":108,"startTime":14.399999999999999,"endTime":14.7,"instrument":0,"program":0,"isDrum":false},{"pitch":62,"velocity":108,"startTime":14.7,"endTime":15,"instrument":0,"program":0,"isDrum":false},{"pitch":67,"velocity":108,"startTime":14.7,"endTime":15,"instrument":0,"program":0,"isDrum":false},{"pitch":70,"velocity":108,"startTime":14.7,"endTime":15,"instrument":0,"program":0,"isDrum":false},{"pitch":65,"velocity":108,"startTime":15,"endTime":15.149999999999999,"instrument":0,"program":0,"isDrum":false},{"pitch":69,"velocity":108,"startTime":15,"endTime":15.149999999999999,"instrument":0,"program":0,"isDrum":false},{"pitch":64,"velocity":108,"startTime":15.149999999999999,"endTime":15.299999999999999,"instrument":0,"program":0,"isDrum":false},{"pitch":67,"velocity":108,"startTime":15.149999999999999,"endTime":15.299999999999999,"instrument":0,"program":0,"isDrum":false},{"pitch":65,"velocity":108,"startTime":15.299999999999999,"endTime":15.446875,"instrument":0,"program":0,"isDrum":false},{"pitch":69,"velocity":108,"startTime":15.299999999999999,"endTime":15.446875,"instrument":0,"program":0,"isDrum":false},{"pitch":62,"velocity":108,"startTime":15.45,"endTime":15.75,"instrument":0,"program":0,"isDrum":false},{"pitch":62,"velocity":108,"startTime":15.899999999999999,"endTime":16.05,"instrument":0,"program":0,"isDrum":false},{"pitch":64,"velocity":108,"startTime":16.05,"endTime":16.2,"instrument":0,"program":0,"isDrum":false},{"pitch":58,"velocity":108,"startTime":16.2,"endTime":16.5,"instrument":0,"program":0,"isDrum":false},{"pitch":62,"velocity":108,"startTime":16.2,"endTime":16.5,"instrument":0,"program":0,"isDrum":false},{"pitch":65,"velocity":108,"startTime":16.2,"endTime":16.5,"instrument":0,"program":0,"isDrum":false},{"pitch":58,"velocity":108,"startTime":16.5,"endTime":16.8,"instrument":0,"program":0,"isDrum":false},{"pitch":62,"velocity":108,"startTime":16.5,"endTime":16.8,"instrument":0,"program":0,"isDrum":false},{"pitch":65,"velocity":108,"startTime":16.5,"endTime":16.8,"instrument":0,"program":0,"isDrum":false},{"pitch":58,"velocity":108,"startTime":16.8,"endTime":17.099999999999998,"instrument":0,"program":0,"isDrum":false},{"pitch":62,"velocity":108,"startTime":16.8,"endTime":17.099999999999998,"instrument":0,"program":0,"isDrum":false},{"pitch":67,"velocity":108,"startTime":16.8,"endTime":17.099999999999998,"instrument":0,"program":0,"isDrum":false},{"pitch":65,"velocity":108,"startTime":17.099999999999998,"endTime":17.25,"instrument":0,"program":0,"isDrum":false},{"pitch":69,"velocity":108,"startTime":17.099999999999998,"endTime":17.25,"instrument":0,"program":0,"isDrum":false},{"pitch":62,"velocity":108,"startTime":17.25,"endTime":17.55,"instrument":0,"program":0,"isDrum":false},{"pitch":62,"velocity":108,"startTime":17.7,"endTime":17.849999999999998,"instrument":0,"program":0,"isDrum":false},{"pitch":65,"velocity":108,"startTime":17.849999999999998,"endTime":18,"instrument":0,"program":0,"isDrum":false},{"pitch":57,"velocity":108,"startTime":18,"endTime":18.3,"instrument":0,"program":0,"isDrum":false},{"pitch":61,"velocity":108,"startTime":18,"endTime":18.3,"instrument":0,"program":0,"isDrum":false},{"pitch":64,"velocity":108,"startTime":18,"endTime":18.3,"instrument":0,"program":0,"isDrum":false},{"pitch":57,"velocity":108,"startTime":18.3,"endTime":18.599999999999998,"instrument":0,"program":0,"isDrum":false},{"pitch":61,"velocity":108,"startTime":18.3,"endTime":18.599999999999998,"instrument":0,"program":0,"isDrum":false},{"pitch":64,"velocity":108,"startTime":18.3,"endTime":18.599999999999998,"instrument":0,"program":0,"isDrum":false},{"pitch":62,"velocity":108,"startTime":18.599999999999998,"endTime":18.75,"instrument":0,"program":0,"isDrum":false},{"pitch":65,"velocity":108,"startTime":18.599999999999998,"endTime":18.75,"instrument":0,"program":0,"isDrum":false},{"pitch":59,"velocity":108,"startTime":18.75,"endTime":18.9,"instrument":0,"program":0,"isDrum":false},{"pitch":62,"velocity":108,"startTime":18.75,"endTime":18.9,"instrument":0,"program":0,"isDrum":false},{"pitch":57,"velocity":108,"startTime":18.9,"endTime":19.349999999999998,"instrument":0,"program":0,"isDrum":false},{"pitch":61,"velocity":108,"startTime":18.9,"endTime":19.349999999999998,"instrument":0,"program":0,"isDrum":false},{"pitch":64,"velocity":108,"startTime":18.9,"endTime":19.349999999999998,"instrument":0,"program":0,"isDrum":false},{"pitch":69,"velocity":108,"startTime":19.5,"endTime":19.65,"instrument":0,"program":0,"isDrum":false},{"pitch":72,"velocity":108,"startTime":19.65,"endTime":19.8,"instrument":0,"program":0,"isDrum":false},{"pitch":65,"velocity":108,"startTime":19.8,"endTime":20.099999999999998,"instrument":0,"program":0,"isDrum":false},{"pitch":69,"velocity":108,"startTime":19.8,"endTime":20.099999999999998,"instrument":0,"program":0,"isDrum":false},{"pitch":74,"velocity":108,"startTime":19.8,"endTime":20.099999999999998,"instrument":0,"program":0,"isDrum":false},{"pitch":65,"velocity":108,"startTime":20.099999999999998,"endTime":20.4,"instrument":0,"program":0,"isDrum":false},{"pitch":69,"velocity":108,"startTime":20.099999999999998,"endTime":20.4,"instrument":0,"program":0,"isDrum":false},{"pitch":74,"velocity":108,"startTime":20.099999999999998,"endTime":20.4,"instrument":0,"program":0,"isDrum":false},{"pitch":65,"velocity":108,"startTime":20.4,"endTime":20.55,"instrument":0,"program":0,"isDrum":false},{"pitch":69,"velocity":108,"startTime":20.4,"endTime":20.55,"instrument":0,"program":0,"isDrum":false},{"pitch":74,"velocity":108,"startTime":20.4,"endTime":20.55,"instrument":0,"program":0,"isDrum":false},{"pitch":69,"velocity":108,"startTime":20.55,"endTime":20.7,"instrument":0,"program":0,"isDrum":false},{"pitch":72,"velocity":108,"startTime":20.55,"endTime":20.7,"instrument":0,"program":0,"isDrum":false},{"pitch":76,"velocity":108,"startTime":20.55,"endTime":20.7,"instrument":0,"program":0,"isDrum":false},{"pitch":70,"velocity":108,"startTime":20.7,"endTime":21,"instrument":0,"program":0,"isDrum":false},{"pitch":74,"velocity":108,"startTime":20.7,"endTime":21,"instrument":0,"program":0,"isDrum":false},{"pitch":77,"velocity":108,"startTime":20.7,"endTime":21,"instrument":0,"program":0,"isDrum":false},{"pitch":70,"velocity":108,"startTime":21,"endTime":21.3,"instrument":0,"program":0,"isDrum":false},{"pitch":74,"velocity":108,"startTime":21,"endTime":21.3,"instrument":0,"program":0,"isDrum":false},{"pitch":77,"velocity":108,"startTime":21,"endTime":21.3,"instrument":0,"program":0,"isDrum":false},{"pitch":70,"velocity":108,"startTime":21.3,"endTime":21.45,"instrument":0,"program":0,"isDrum":false},{"pitch":74,"velocity":108,"startTime":21.3,"endTime":21.45,"instrument":0,"program":0,"isDrum":false},{"pitch":77,"velocity":108,"startTime":21.3,"endTime":21.45,"instrument":0,"program":0,"isDrum":false},{"pitch":74,"velocity":108,"startTime":21.45,"endTime":21.599999999999998,"instrument":0,"program":0,"isDrum":false},{"pitch":79,"velocity":108,"startTime":21.45,"endTime":21.599999999999998,"instrument":0,"program":0,"isDrum":false},{"pitch":69,"velocity":108,"startTime":21.599999999999998,"endTime":21.9,"instrument":0,"program":0,"isDrum":false},{"pitch":72,"velocity":108,"startTime":21.599999999999998,"endTime":21.9,"instrument":0,"program":0,"isDrum":false},{"pitch":76,"velocity":108,"startTime":21.599999999999998,"endTime":21.9,"instrument":0,"program":0,"isDrum":false},{"pitch":69,"velocity":108,"startTime":21.9,"endTime":22.2,"instrument":0,"program":0,"isDrum":false},{"pitch":72,"velocity":108,"startTime":21.9,"endTime":22.2,"instrument":0,"program":0,"isDrum":false},{"pitch":76,"velocity":108,"startTime":21.9,"endTime":22.2,"instrument":0,"program":0,"isDrum":false},{"pitch":69,"velocity":108,"startTime":22.2,"endTime":22.349999999999998,"instrument":0,"program":0,"isDrum":false},{"pitch":74,"velocity":108,"startTime":22.2,"endTime":22.349999999999998,"instrument":0,"program":0,"isDrum":false},{"pitch":67,"velocity":108,"startTime":22.349999999999998,"endTime":22.5,"instrument":0,"program":0,"isDrum":false},{"pitch":72,"velocity":108,"startTime":22.349999999999998,"endTime":22.5,"instrument":0,"program":0,"isDrum":false},{"pitch":69,"velocity":108,"startTime":22.5,"endTime":22.646874999999998,"instrument":0,"program":0,"isDrum":false},{"pitch":72,"velocity":108,"startTime":22.5,"endTime":22.646874999999998,"instrument":0,"program":0,"isDrum":false},{"pitch":69,"velocity":108,"startTime":22.65,"endTime":22.9,"instrument":0,"program":0,"isDrum":false},{"pitch":74,"velocity":108,"startTime":22.65,"endTime":22.9,"instrument":0,"program":0,"isDrum":false},{"pitch":69,"velocity":108,"startTime":23.099999999999998,"endTime":23.25,"instrument":0,"program":0,"isDrum":false},{"pitch":72,"velocity":108,"startTime":23.25,"endTime":23.4,"instrument":0,"program":0,"isDrum":false},{"pitch":65,"velocity":108,"startTime":23.4,"endTime":23.7,"instrument":0,"program":0,"isDrum":false},{"pitch":70,"velocity":108,"startTime":23.4,"endTime":23.7,"instrument":0,"program":0,"isDrum":false},{"pitch":74,"velocity":108,"startTime":23.4,"endTime":23.7,"instrument":0,"program":0,"isDrum":false},{"pitch":65,"velocity":108,"startTime":23.7,"endTime":24,"instrument":0,"program":0,"isDrum":false},{"pitch":70,"velocity":108,"startTime":23.7,"endTime":24,"instrument":0,"program":0,"isDrum":false},{"pitch":74,"velocity":108,"startTime":23.7,"endTime":24,"instrument":0,"program":0,"isDrum":false},{"pitch":70,"velocity":108,"startTime":24,"endTime":24.15,"instrument":0,"program":0,"isDrum":false},{"pitch":74,"velocity":108,"startTime":24,"endTime":24.15,"instrument":0,"program":0,"isDrum":false},{"pitch":70,"velocity":108,"startTime":24.15,"endTime":24.3,"instrument":0,"program":0,"isDrum":false},{"pitch":76,"velocity":108,"startTime":24.15,"endTime":24.3,"instrument":0,"program":0,"isDrum":false},{"pitch":69,"velocity":108,"startTime":24.3,"endTime":24.599999999999998,"instrument":0,"program":0,"isDrum":false},{"pitch":72,"velocity":108,"startTime":24.3,"endTime":24.599999999999998,"instrument":0,"program":0,"isDrum":false},{"pitch":77,"velocity":108,"startTime":24.3,"endTime":24.599999999999998,"instrument":0,"program":0,"isDrum":false},{"pitch":69,"velocity":108,"startTime":24.599999999999998,"endTime":24.9,"instrument":0,"program":0,"isDrum":false},{"pitch":72,"velocity":108,"startTime":24.599999999999998,"endTime":24.9,"instrument":0,"program":0,"isDrum":false},{"pitch":77,"velocity":108,"startTime":24.599999999999998,"endTime":24.9,"instrument":0,"program":0,"isDrum":false},{"pitch":72,"velocity":108,"startTime":24.9,"endTime":25.05,"instrument":0,"program":0,"isDrum":false},{"pitch":77,"velocity":108,"startTime":24.9,"endTime":25.05,"instrument":0,"program":0,"isDrum":false},{"pitch":72,"velocity":108,"startTime":25.05,"endTime":25.2,"instrument":0,"program":0,"isDrum":false},{"pitch":79,"velocity":108,"startTime":25.05,"endTime":25.2,"instrument":0,"program":0,"isDrum":false},{"pitch":72,"velocity":108,"startTime":25.2,"endTime":25.5,"instrument":0,"program":0,"isDrum":false},{"pitch":76,"velocity":108,"startTime":25.2,"endTime":25.5,"instrument":0,"program":0,"isDrum":false},{"pitch":72,"velocity":108,"startTime":25.5,"endTime":25.8,"instrument":0,"program":0,"isDrum":false},{"pitch":76,"velocity":108,"startTime":25.5,"endTime":25.8,"instrument":0,"program":0,"isDrum":false},{"pitch":69,"velocity":108,"startTime":25.8,"endTime":25.95,"instrument":0,"program":0,"isDrum":false},{"pitch":74,"velocity":108,"startTime":25.8,"endTime":25.95,"instrument":0,"program":0,"isDrum":false},{"pitch":72,"velocity":108,"startTime":25.95,"endTime":26.099999999999998,"instrument":0,"program":0,"isDrum":false},{"pitch":65,"velocity":108,"startTime":26.099999999999998,"endTime":26.4,"instrument":0,"program":0,"isDrum":false},{"pitch":69,"velocity":108,"startTime":26.099999999999998,"endTime":26.4,"instrument":0,"program":0,"isDrum":false},{"pitch":74,"velocity":108,"startTime":26.099999999999998,"endTime":26.4,"instrument":0,"program":0,"isDrum":false},{"pitch":69,"velocity":108,"startTime":26.7,"endTime":26.849999999999998,"instrument":0,"program":0,"isDrum":false},{"pitch":72,"velocity":108,"startTime":26.849999999999998,"endTime":27,"instrument":0,"program":0,"isDrum":false},{"pitch":65,"velocity":108,"startTime":27,"endTime":27.3,"instrument":0,"program":0,"isDrum":false},{"pitch":69,"velocity":108,"startTime":27,"endTime":27.3,"instrument":0,"program":0,"isDrum":false},{"pitch":74,"velocity":108,"startTime":27,"endTime":27.3,"instrument":0,"program":0,"isDrum":false},{"pitch":65,"velocity":108,"startTime":27.3,"endTime":27.599999999999998,"instrument":0,"program":0,"isDrum":false},{"pitch":69,"velocity":108,"startTime":27.3,"endTime":27.599999999999998,"instrument":0,"program":0,"isDrum":false},{"pitch":74,"velocity":108,"startTime":27.3,"endTime":27.599999999999998,"instrument":0,"program":0,"isDrum":false},{"pitch":69,"velocity":108,"startTime":27.599999999999998,"endTime":27.75,"instrument":0,"program":0,"isDrum":false},{"pitch":74,"velocity":108,"startTime":27.599999999999998,"endTime":27.75,"instrument":0,"program":0,"isDrum":false},{"pitch":69,"velocity":108,"startTime":27.75,"endTime":27.9,"instrument":0,"program":0,"isDrum":false},{"pitch":77,"velocity":108,"startTime":27.75,"endTime":27.9,"instrument":0,"program":0,"isDrum":false},{"pitch":70,"velocity":108,"startTime":27.9,"endTime":28.2,"instrument":0,"program":0,"isDrum":false},{"pitch":74,"velocity":108,"startTime":27.9,"endTime":28.2,"instrument":0,"program":0,"isDrum":false},{"pitch":79,"velocity":108,"startTime":27.9,"endTime":28.2,"instrument":0,"program":0,"isDrum":false},{"pitch":70,"velocity":108,"startTime":28.2,"endTime":28.5,"instrument":0,"program":0,"isDrum":false},{"pitch":74,"velocity":108,"startTime":28.2,"endTime":28.5,"instrument":0,"program":0,"isDrum":false},{"pitch":79,"velocity":108,"startTime":28.2,"endTime":28.5,"instrument":0,"program":0,"isDrum":false},{"pitch":74,"velocity":108,"startTime":28.5,"endTime":28.65,"instrument":0,"program":0,"isDrum":false},{"pitch":79,"velocity":108,"startTime":28.5,"endTime":28.65,"instrument":0,"program":0,"isDrum":false},{"pitch":74,"velocity":108,"startTime":28.65,"endTime":28.799999999999997,"instrument":0,"program":0,"isDrum":false},{"pitch":81,"velocity":108,"startTime":28.65,"endTime":28.799999999999997,"instrument":0,"program":0,"isDrum":false},{"pitch":74,"velocity":108,"startTime":28.799999999999997,"endTime":29.099999999999998,"instrument":0,"program":0,"isDrum":false},{"pitch":79,"velocity":108,"startTime":28.799999999999997,"endTime":29.099999999999998,"instrument":0,"program":0,"isDrum":false},{"pitch":82,"velocity":108,"startTime":28.799999999999997,"endTime":29.099999999999998,"instrument":0,"program":0,"isDrum":false},{"pitch":74,"velocity":108,"startTime":29.099999999999998,"endTime":29.4,"instrument":0,"program":0,"isDrum":false},{"pitch":79,"velocity":108,"startTime":29.099999999999998,"endTime":29.4,"instrument":0,"program":0,"isDrum":false},{"pitch":82,"velocity":108,"startTime":29.099999999999998,"endTime":29.4,"instrument":0,"program":0,"isDrum":false},{"pitch":77,"velocity":108,"startTime":29.4,"endTime":29.549999999999997,"instrument":0,"program":0,"isDrum":false},{"pitch":81,"velocity":108,"startTime":29.4,"endTime":29.549999999999997,"instrument":0,"program":0,"isDrum":false},{"pitch":76,"velocity":108,"startTime":29.549999999999997,"endTime":29.7,"instrument":0,"program":0,"isDrum":false},{"pitch":79,"velocity":108,"startTime":29.549999999999997,"endTime":29.7,"instrument":0,"program":0,"isDrum":false},{"pitch":77,"velocity":108,"startTime":29.7,"endTime":29.849999999999998,"instrument":0,"program":0,"isDrum":false},{"pitch":81,"velocity":108,"startTime":29.7,"endTime":29.849999999999998,"instrument":0,"program":0,"isDrum":false},{"pitch":74,"velocity":108,"startTime":29.849999999999998,"endTime":30.15,"instrument":0,"program":0,"isDrum":false},{"pitch":74,"velocity":108,"startTime":30.299999999999997,"endTime":30.45,"instrument":0,"program":0,"isDrum":false},{"pitch":76,"velocity":108,"startTime":30.45,"endTime":30.599999999999998,"instrument":0,"program":0,"isDrum":false},{"pitch":70,"velocity":108,"startTime":30.599999999999998,"endTime":30.9,"instrument":0,"program":0,"isDrum":false},{"pitch":74,"velocity":108,"startTime":30.599999999999998,"endTime":30.9,"instrument":0,"program":0,"isDrum":false},{"pitch":77,"velocity":108,"startTime":30.599999999999998,"endTime":30.9,"instrument":0,"program":0,"isDrum":false},{"pitch":70,"velocity":108,"startTime":30.9,"endTime":31.2,"instrument":0,"program":0,"isDrum":false},{"pitch":74,"velocity":108,"startTime":30.9,"endTime":31.2,"instrument":0,"program":0,"isDrum":false},{"pitch":77,"velocity":108,"startTime":30.9,"endTime":31.2,"instrument":0,"program":0,"isDrum":false},{"pitch":70,"velocity":108,"startTime":31.2,"endTime":31.5,"instrument":0,"program":0,"isDrum":false},{"pitch":74,"velocity":108,"startTime":31.2,"endTime":31.5,"instrument":0,"program":0,"isDrum":false},{"pitch":79,"velocity":108,"startTime":31.2,"endTime":31.5,"instrument":0,"program":0,"isDrum":false},{"pitch":77,"velocity":108,"startTime":31.5,"endTime":31.65,"instrument":0,"program":0,"isDrum":false},{"pitch":81,"velocity":108,"startTime":31.5,"endTime":31.65,"instrument":0,"program":0,"isDrum":false},{"pitch":74,"velocity":108,"startTime":31.65,"endTime":31.95,"instrument":0,"program":0,"isDrum":false},{"pitch":74,"velocity":108,"startTime":32.1,"endTime":32.25,"instrument":0,"program":0,"isDrum":false},{"pitch":77,"velocity":108,"startTime":32.25,"endTime":32.4,"instrument":0,"program":0,"isDrum":false},{"pitch":69,"velocity":108,"startTime":32.4,"endTime":32.699999999999996,"instrument":0,"program":0,"isDrum":false},{"pitch":73,"velocity":108,"startTime":32.4,"endTime":32.699999999999996,"instrument":0,"program":0,"isDrum":false},{"pitch":76,"velocity":108,"startTime":32.4,"endTime":32.699999999999996,"instrument":0,"program":0,"isDrum":false},{"pitch":69,"velocity":108,"startTime":32.699999999999996,"endTime":33,"instrument":0,"program":0,"isDrum":false},{"pitch":73,"velocity":108,"startTime":32.699999999999996,"endTime":33,"instrument":0,"program":0,"isDrum":false},{"pitch":76,"velocity":108,"startTime":32.699999999999996,"endTime":33,"instrument":0,"program":0,"isDrum":false},{"pitch":74,"velocity":108,"startTime":33,"endTime":33.15,"instrument":0,"program":0,"isDrum":false},{"pitch":73,"velocity":108,"startTime":33.15,"endTime":33.3,"instrument":0,"program":0,"isDrum":false},{"pitch":69,"velocity":108,"startTime":33.3,"endTime":33.6,"instrument":0,"program":0,"isDrum":false},{"pitch":74,"velocity":108,"startTime":33.3,"endTime":33.6,"instrument":0,"program":0,"isDrum":false},{"pitch":69,"velocity":108,"startTime":33.6,"endTime":33.9,"instrument":0,"program":0,"isDrum":false},{"pitch":74,"velocity":108,"startTime":33.6,"endTime":33.9,"instrument":0,"program":0,"isDrum":false},{"pitch":69,"velocity":108,"startTime":33.9,"endTime":34.199999999999996,"instrument":0,"program":0,"isDrum":false},{"pitch":72,"velocity":108,"startTime":33.9,"endTime":34.199999999999996,"instrument":0,"program":0,"isDrum":false},{"pitch":76,"velocity":108,"startTime":33.9,"endTime":34.199999999999996,"instrument":0,"program":0,"isDrum":false},{"pitch":72,"velocity":108,"startTime":34.199999999999996,"endTime":34.5,"instrument":0,"program":0,"isDrum":false},{"pitch":74,"velocity":108,"startTime":34.199999999999996,"endTime":34.5,"instrument":0,"program":0,"isDrum":false},{"pitch":77,"velocity":108,"startTime":34.199999999999996,"endTime":34.5,"instrument":0,"program":0,"isDrum":false},{"pitch":77,"velocity":108,"startTime":34.5,"endTime":34.65,"instrument":0,"program":0,"isDrum":false},{"pitch":77,"velocity":108,"startTime":34.65,"endTime":34.8,"instrument":0,"program":0,"isDrum":false},{"pitch":70,"velocity":108,"startTime":34.8,"endTime":35.1,"instrument":0,"program":0,"isDrum":false},{"pitch":74,"velocity":108,"startTime":34.8,"endTime":35.1,"instrument":0,"program":0,"isDrum":false},{"pitch":79,"velocity":108,"startTime":34.8,"endTime":35.1,"instrument":0,"program":0,"isDrum":false},{"pitch":74,"velocity":108,"startTime":35.1,"endTime":35.25,"instrument":0,"program":0,"isDrum":false},{"pitch":81,"velocity":108,"startTime":35.1,"endTime":35.25,"instrument":0,"program":0,"isDrum":false},{"pitch":77,"velocity":108,"startTime":35.25,"endTime":35.4,"instrument":0,"program":0,"isDrum":false},{"pitch":69,"velocity":108,"startTime":35.699999999999996,"endTime":35.85,"instrument":0,"program":0,"isDrum":false},{"pitch":77,"velocity":108,"startTime":35.699999999999996,"endTime":35.85,"instrument":0,"program":0,"isDrum":false},{"pitch":69,"velocity":108,"startTime":35.85,"endTime":36,"instrument":0,"program":0,"isDrum":false},{"pitch":74,"velocity":108,"startTime":35.85,"endTime":36,"instrument":0,"program":0,"isDrum":false},{"pitch":69,"velocity":108,"startTime":36,"endTime":36.15,"instrument":0,"program":0,"isDrum":false},{"pitch":74,"velocity":108,"startTime":36.9,"endTime":37.05,"instrument":0,"program":0,"isDrum":false},{"pitch":79,"velocity":108,"startTime":36.9,"endTime":37.05,"instrument":0,"program":0,"isDrum":false},{"pitch":82,"velocity":108,"startTime":36.9,"endTime":37.05,"instrument":0,"program":0,"isDrum":false},{"pitch":70,"velocity":108,"startTime":37.5,"endTime":37.65,"instrument":0,"program":0,"isDrum":false},{"pitch":79,"velocity":108,"startTime":37.5,"endTime":37.65,"instrument":0,"program":0,"isDrum":false},{"pitch":70,"velocity":108,"startTime":37.65,"endTime":37.8,"instrument":0,"program":0,"isDrum":false},{"pitch":74,"velocity":108,"startTime":37.65,"endTime":37.8,"instrument":0,"program":0,"isDrum":false},{"pitch":70,"velocity":108,"startTime":37.8,"endTime":37.949999999999996,"instrument":0,"program":0,"isDrum":false},{"pitch":61,"velocity":108,"startTime":38.699999999999996,"endTime":38.846875000000004,"instrument":0,"program":0,"isDrum":false},{"pitch":64,"velocity":108,"startTime":38.699999999999996,"endTime":38.846875000000004,"instrument":0,"program":0,"isDrum":false},{"pitch":61,"velocity":108,"startTime":38.85,"endTime":39.1,"instrument":0,"program":0,"isDrum":false},{"pitch":64,"velocity":108,"startTime":38.85,"endTime":39.1,"instrument":0,"program":0,"isDrum":false},{"pitch":55,"velocity":108,"startTime":39.15,"endTime":39.550000000000004,"instrument":0,"program":0,"isDrum":false},{"pitch":62,"velocity":108,"startTime":39.15,"endTime":39.550000000000004,"instrument":0,"program":0,"isDrum":false},{"pitch":57,"velocity":108,"startTime":39.6,"endTime":40,"instrument":0,"program":0,"isDrum":false},{"pitch":61,"velocity":108,"startTime":39.6,"endTime":40,"instrument":0,"program":0,"isDrum":false},{"pitch":65,"velocity":108,"startTime":39.6,"endTime":40,"instrument":0,"program":0,"isDrum":false},{"pitch":65,"velocity":108,"startTime":40.199999999999996,"endTime":40.346875000000004,"instrument":0,"program":0,"isDrum":false},{"pitch":67,"velocity":108,"startTime":40.35,"endTime":40.496875,"instrument":0,"program":0,"isDrum":false},{"pitch":62,"velocity":108,"startTime":40.5,"endTime":40.75,"instrument":0,"program":0,"isDrum":false},{"pitch":65,"velocity":108,"startTime":40.5,"endTime":40.75,"instrument":0,"program":0,"isDrum":false},{"pitch":69,"velocity":108,"startTime":40.5,"endTime":40.75,"instrument":0,"program":0,"isDrum":false},{"pitch":62,"velocity":108,"startTime":40.8,"endTime":41.050000000000004,"instrument":0,"program":0,"isDrum":false},{"pitch":65,"velocity":108,"startTime":40.8,"endTime":41.050000000000004,"instrument":0,"program":0,"isDrum":false},{"pitch":69,"velocity":108,"startTime":40.8,"endTime":41.050000000000004,"instrument":0,"program":0,"isDrum":false},{"pitch":62,"velocity":108,"startTime":41.1,"endTime":41.35,"instrument":0,"program":0,"isDrum":false},{"pitch":65,"velocity":108,"startTime":41.1,"endTime":41.35,"instrument":0,"program":0,"isDrum":false},{"pitch":69,"velocity":108,"startTime":41.1,"endTime":41.35,"instrument":0,"program":0,"isDrum":false},{"pitch":62,"velocity":108,"startTime":41.4,"endTime":41.546875,"instrument":0,"program":0,"isDrum":false},{"pitch":65,"velocity":108,"startTime":41.4,"endTime":41.546875,"instrument":0,"program":0,"isDrum":false},{"pitch":70,"velocity":108,"startTime":41.4,"endTime":41.546875,"instrument":0,"program":0,"isDrum":false},{"pitch":62,"velocity":108,"startTime":41.55,"endTime":41.696875,"instrument":0,"program":0,"isDrum":false},{"pitch":65,"velocity":108,"startTime":41.55,"endTime":41.696875,"instrument":0,"program":0,"isDrum":false},{"pitch":69,"velocity":108,"startTime":41.55,"endTime":41.696875,"instrument":0,"program":0,"isDrum":false},{"pitch":60,"velocity":108,"startTime":42.3,"endTime":42.550000000000004,"instrument":0,"program":0,"isDrum":false},{"pitch":64,"velocity":108,"startTime":42.3,"endTime":42.550000000000004,"instrument":0,"program":0,"isDrum":false},{"pitch":67,"velocity":108,"startTime":42.3,"endTime":42.550000000000004,"instrument":0,"program":0,"isDrum":false},{"pitch":60,"velocity":108,"startTime":42.6,"endTime":42.85,"instrument":0,"program":0,"isDrum":false},{"pitch":64,"velocity":108,"startTime":42.6,"endTime":42.85,"instrument":0,"program":0,"isDrum":false},{"pitch":67,"velocity":108,"startTime":42.6,"endTime":42.85,"instrument":0,"program":0,"isDrum":false},{"pitch":60,"velocity":108,"startTime":42.9,"endTime":43.15,"instrument":0,"program":0,"isDrum":false},{"pitch":64,"velocity":108,"startTime":42.9,"endTime":43.15,"instrument":0,"program":0,"isDrum":false},{"pitch":67,"velocity":108,"startTime":42.9,"endTime":43.15,"instrument":0,"program":0,"isDrum":false},{"pitch":60,"velocity":108,"startTime":43.199999999999996,"endTime":43.346875000000004,"instrument":0,"program":0,"isDrum":false},{"pitch":64,"velocity":108,"startTime":43.199999999999996,"endTime":43.346875000000004,"instrument":0,"program":0,"isDrum":false},{"pitch":67,"velocity":108,"startTime":43.199999999999996,"endTime":43.346875000000004,"instrument":0,"program":0,"isDrum":false},{"pitch":60,"velocity":108,"startTime":43.35,"endTime":43.496875,"instrument":0,"program":0,"isDrum":false},{"pitch":65,"velocity":108,"startTime":43.35,"endTime":43.496875,"instrument":0,"program":0,"isDrum":false},{"pitch":69,"velocity":108,"startTime":43.35,"endTime":43.496875,"instrument":0,"program":0,"isDrum":false},{"pitch":62,"velocity":108,"startTime":44.1,"endTime":44.35,"instrument":0,"program":0,"isDrum":false},{"pitch":65,"velocity":108,"startTime":44.1,"endTime":44.35,"instrument":0,"program":0,"isDrum":false},{"pitch":69,"velocity":108,"startTime":44.1,"endTime":44.35,"instrument":0,"program":0,"isDrum":false},{"pitch":62,"velocity":108,"startTime":44.4,"endTime":44.65,"instrument":0,"program":0,"isDrum":false},{"pitch":65,"velocity":108,"startTime":44.4,"endTime":44.65,"instrument":0,"program":0,"isDrum":false},{"pitch":69,"velocity":108,"startTime":44.4,"endTime":44.65,"instrument":0,"program":0,"isDrum":false},{"pitch":62,"velocity":108,"startTime":44.699999999999996,"endTime":44.95,"instrument":0,"program":0,"isDrum":false},{"pitch":65,"velocity":108,"startTime":44.699999999999996,"endTime":44.95,"instrument":0,"program":0,"isDrum":false},{"pitch":69,"velocity":108,"startTime":44.699999999999996,"endTime":44.95,"instrument":0,"program":0,"isDrum":false},{"pitch":62,"velocity":108,"startTime":45,"endTime":45.146875,"instrument":0,"program":0,"isDrum":false},{"pitch":65,"velocity":108,"startTime":45,"endTime":45.146875,"instrument":0,"program":0,"isDrum":false},{"pitch":70,"velocity":108,"startTime":45,"endTime":45.146875,"instrument":0,"program":0,"isDrum":false},{"pitch":62,"velocity":108,"startTime":45.15,"endTime":45.296875,"instrument":0,"program":0,"isDrum":false},{"pitch":65,"velocity":108,"startTime":45.15,"endTime":45.296875,"instrument":0,"program":0,"isDrum":false},{"pitch":69,"velocity":108,"startTime":45.15,"endTime":45.296875,"instrument":0,"program":0,"isDrum":false},{"pitch":61,"velocity":108,"startTime":45.9,"endTime":46.15,"instrument":0,"program":0,"isDrum":false},{"pitch":64,"velocity":108,"startTime":45.9,"endTime":46.15,"instrument":0,"program":0,"isDrum":false},{"pitch":67,"velocity":108,"startTime":45.9,"endTime":46.15,"instrument":0,"program":0,"isDrum":false},{"pitch":61,"velocity":108,"startTime":46.199999999999996,"endTime":46.45,"instrument":0,"program":0,"isDrum":false},{"pitch":65,"velocity":108,"startTime":46.199999999999996,"endTime":46.45,"instrument":0,"program":0,"isDrum":false},{"pitch":57,"velocity":108,"startTime":46.5,"endTime":46.75,"instrument":0,"program":0,"isDrum":false},{"pitch":64,"velocity":108,"startTime":46.5,"endTime":46.75,"instrument":0,"program":0,"isDrum":false},{"pitch":53,"velocity":108,"startTime":46.8,"endTime":47.050000000000004,"instrument":0,"program":0,"isDrum":false},{"pitch":57,"velocity":108,"startTime":46.8,"endTime":47.050000000000004,"instrument":0,"program":0,"isDrum":false},{"pitch":62,"velocity":108,"startTime":46.8,"endTime":47.050000000000004,"instrument":0,"program":0,"isDrum":false},{"pitch":62,"velocity":108,"startTime":47.4,"endTime":47.546875,"instrument":0,"program":0,"isDrum":false},{"pitch":64,"velocity":108,"startTime":47.55,"endTime":47.696875,"instrument":0,"program":0,"isDrum":false},{"pitch":57,"velocity":108,"startTime":47.699999999999996,"endTime":48.225,"instrument":0,"program":0,"isDrum":false},{"pitch":62,"velocity":108,"startTime":47.699999999999996,"endTime":48.225,"instrument":0,"program":0,"isDrum":false},{"pitch":65,"velocity":108,"startTime":47.699999999999996,"endTime":48.225,"instrument":0,"program":0,"isDrum":false},{"pitch":67,"velocity":108,"startTime":48.3,"endTime":48.446875,"instrument":0,"program":0,"isDrum":false},{"pitch":69,"velocity":108,"startTime":48.449999999999996,"endTime":48.596875000000004,"instrument":0,"program":0,"isDrum":false},{"pitch":60,"velocity":108,"startTime":48.6,"endTime":48.85,"instrument":0,"program":0,"isDrum":false},{"pitch":67,"velocity":108,"startTime":48.6,"endTime":48.85,"instrument":0,"program":0,"isDrum":false},{"pitch":60,"velocity":108,"startTime":48.9,"endTime":49.15,"instrument":0,"program":0,"isDrum":false},{"pitch":65,"velocity":108,"startTime":48.9,"endTime":49.15,"instrument":0,"program":0,"isDrum":false},{"pitch":60,"velocity":108,"startTime":49.199999999999996,"endTime":49.45,"instrument":0,"program":0,"isDrum":false},{"pitch":64,"velocity":108,"startTime":49.199999999999996,"endTime":49.45,"instrument":0,"program":0,"isDrum":false},{"pitch":57,"velocity":108,"startTime":49.5,"endTime":49.75,"instrument":0,"program":0,"isDrum":false},{"pitch":60,"velocity":108,"startTime":49.5,"endTime":49.75,"instrument":0,"program":0,"isDrum":false},{"pitch":65,"velocity":108,"startTime":49.5,"endTime":49.75,"instrument":0,"program":0,"isDrum":false},{"pitch":57,"velocity":108,"startTime":49.8,"endTime":50.050000000000004,"instrument":0,"program":0,"isDrum":false},{"pitch":60,"velocity":108,"startTime":49.8,"endTime":50.050000000000004,"instrument":0,"program":0,"isDrum":false},{"pitch":67,"velocity":108,"startTime":49.8,"endTime":50.050000000000004,"instrument":0,"program":0,"isDrum":false},{"pitch":57,"velocity":108,"startTime":50.1,"endTime":50.35,"instrument":0,"program":0,"isDrum":false},{"pitch":60,"velocity":108,"startTime":50.1,"endTime":50.35,"instrument":0,"program":0,"isDrum":false},{"pitch":69,"velocity":108,"startTime":50.1,"endTime":50.35,"instrument":0,"program":0,"isDrum":false},{"pitch":60,"velocity":108,"startTime":50.4,"endTime":50.65,"instrument":0,"program":0,"isDrum":false},{"pitch":64,"velocity":108,"startTime":50.4,"endTime":50.65,"instrument":0,"program":0,"isDrum":false},{"pitch":67,"velocity":108,"startTime":50.4,"endTime":50.65,"instrument":0,"program":0,"isDrum":false},{"pitch":65,"velocity":108,"startTime":51,"endTime":51.146875,"instrument":0,"program":0,"isDrum":false},{"pitch":67,"velocity":108,"startTime":51.15,"endTime":51.296875,"instrument":0,"program":0,"isDrum":false},{"pitch":60,"velocity":108,"startTime":51.3,"endTime":51.550000000000004,"instrument":0,"program":0,"isDrum":false},{"pitch":65,"velocity":108,"startTime":51.3,"endTime":51.550000000000004,"instrument":0,"program":0,"isDrum":false},{"pitch":69,"velocity":108,"startTime":51.3,"endTime":51.550000000000004,"instrument":0,"program":0,"isDrum":false},{"pitch":67,"velocity":108,"startTime":51.9,"endTime":52.046875,"instrument":0,"program":0,"isDrum":false},{"pitch":65,"velocity":108,"startTime":52.05,"endTime":52.196875,"instrument":0,"program":0,"isDrum":false},{"pitch":61,"velocity":108,"startTime":52.199999999999996,"endTime":52.45,"instrument":0,"program":0,"isDrum":false},{"pitch":64,"velocity":108,"startTime":52.199999999999996,"endTime":52.45,"instrument":0,"program":0,"isDrum":false},{"pitch":61,"velocity":108,"startTime":52.5,"endTime":52.75,"instrument":0,"program":0,"isDrum":false},{"pitch":65,"velocity":108,"startTime":52.5,"endTime":52.75,"instrument":0,"program":0,"isDrum":false},{"pitch":61,"velocity":108,"startTime":52.8,"endTime":53.050000000000004,"instrument":0,"program":0,"isDrum":false},{"pitch":64,"velocity":108,"startTime":52.8,"endTime":53.050000000000004,"instrument":0,"program":0,"isDrum":false},{"pitch":53,"velocity":108,"startTime":53.1,"endTime":53.35,"instrument":0,"program":0,"isDrum":false},{"pitch":57,"velocity":108,"startTime":53.1,"endTime":53.35,"instrument":0,"program":0,"isDrum":false},{"pitch":62,"velocity":108,"startTime":53.1,"endTime":53.35,"instrument":0,"program":0,"isDrum":false},{"pitch":64,"velocity":108,"startTime":53.699999999999996,"endTime":53.846875000000004,"instrument":0,"program":0,"isDrum":false},{"pitch":60,"velocity":108,"startTime":53.85,"endTime":53.996875,"instrument":0,"program":0,"isDrum":false},{"pitch":53,"velocity":108,"startTime":54,"endTime":54.146875,"instrument":0,"program":0,"isDrum":false},{"pitch":57,"velocity":108,"startTime":54,"endTime":54.146875,"instrument":0,"program":0,"isDrum":false},{"pitch":62,"velocity":108,"startTime":54,"endTime":54.146875,"instrument":0,"program":0,"isDrum":false},{"pitch":74,"velocity":108,"startTime":54.6,"endTime":54.746875,"instrument":0,"program":0,"isDrum":false},{"pitch":76,"velocity":108,"startTime":54.75,"endTime":54.896875,"instrument":0,"program":0,"isDrum":false},{"pitch":69,"velocity":108,"startTime":54.9,"endTime":55.15,"instrument":0,"program":0,"isDrum":false},{"pitch":74,"velocity":108,"startTime":54.9,"endTime":55.15,"instrument":0,"program":0,"isDrum":false},{"pitch":77,"velocity":108,"startTime":54.9,"endTime":55.15,"instrument":0,"program":0,"isDrum":false},{"pitch":76,"velocity":108,"startTime":55.5,"endTime":55.646875,"instrument":0,"program":0,"isDrum":false},{"pitch":77,"velocity":108,"startTime":55.65,"endTime":55.796875,"instrument":0,"program":0,"isDrum":false},{"pitch":72,"velocity":108,"startTime":55.8,"endTime":56.050000000000004,"instrument":0,"program":0,"isDrum":false},{"pitch":79,"velocity":108,"startTime":55.8,"endTime":56.050000000000004,"instrument":0,"program":0,"isDrum":false},{"pitch":72,"velocity":108,"startTime":56.1,"endTime":56.35,"instrument":0,"program":0,"isDrum":false},{"pitch":77,"velocity":108,"startTime":56.1,"endTime":56.35,"instrument":0,"program":0,"isDrum":false},{"pitch":72,"velocity":108,"startTime":56.4,"endTime":56.65,"instrument":0,"program":0,"isDrum":false},{"pitch":79,"velocity":108,"startTime":56.4,"endTime":56.65,"instrument":0,"program":0,"isDrum":false},{"pitch":77,"velocity":108,"startTime":56.699999999999996,"endTime":56.95,"instrument":0,"program":0,"isDrum":false},{"pitch":81,"velocity":108,"startTime":56.699999999999996,"endTime":56.95,"instrument":0,"program":0,"isDrum":false},{"pitch":72,"velocity":108,"startTime":57,"endTime":57.25,"instrument":0,"program":0,"isDrum":false},{"pitch":79,"velocity":108,"startTime":57,"endTime":57.25,"instrument":0,"program":0,"isDrum":false},{"pitch":72,"velocity":108,"startTime":57.3,"endTime":57.550000000000004,"instrument":0,"program":0,"isDrum":false},{"pitch":77,"velocity":108,"startTime":57.3,"endTime":57.550000000000004,"instrument":0,"program":0,"isDrum":false},{"pitch":65,"velocity":108,"startTime":57.599999999999994,"endTime":57.85,"instrument":0,"program":0,"isDrum":false},{"pitch":70,"velocity":108,"startTime":57.599999999999994,"endTime":57.85,"instrument":0,"program":0,"isDrum":false},{"pitch":74,"velocity":108,"startTime":57.599999999999994,"endTime":57.85,"instrument":0,"program":0,"isDrum":false},{"pitch":74,"velocity":108,"startTime":58.199999999999996,"endTime":58.346875,"instrument":0,"program":0,"isDrum":false},{"pitch":76,"velocity":108,"startTime":58.349999999999994,"endTime":58.496875,"instrument":0,"program":0,"isDrum":false},{"pitch":69,"velocity":108,"startTime":58.5,"endTime":58.75,"instrument":0,"program":0,"isDrum":false},{"pitch":74,"velocity":108,"startTime":58.5,"endTime":58.75,"instrument":0,"program":0,"isDrum":false},{"pitch":77,"velocity":108,"startTime":58.5,"endTime":58.75,"instrument":0,"program":0,"isDrum":false},{"pitch":69,"velocity":108,"startTime":58.8,"endTime":59.05,"instrument":0,"program":0,"isDrum":false},{"pitch":74,"velocity":108,"startTime":58.8,"endTime":59.05,"instrument":0,"program":0,"isDrum":false},{"pitch":79,"velocity":108,"startTime":58.8,"endTime":59.05,"instrument":0,"program":0,"isDrum":false},{"pitch":74,"velocity":108,"startTime":59.099999999999994,"endTime":59.35,"instrument":0,"program":0,"isDrum":false},{"pitch":81,"velocity":108,"startTime":59.099999999999994,"endTime":59.35,"instrument":0,"program":0,"isDrum":false},{"pitch":70,"velocity":108,"startTime":59.4,"endTime":59.65,"instrument":0,"program":0,"isDrum":false},{"pitch":74,"velocity":108,"startTime":59.4,"endTime":59.65,"instrument":0,"program":0,"isDrum":false},{"pitch":82,"velocity":108,"startTime":59.4,"endTime":59.65,"instrument":0,"program":0,"isDrum":false},{"pitch":70,"velocity":108,"startTime":59.699999999999996,"endTime":59.95,"instrument":0,"program":0,"isDrum":false},{"pitch":74,"velocity":108,"startTime":59.699999999999996,"endTime":59.95,"instrument":0,"program":0,"isDrum":false},{"pitch":70,"velocity":108,"startTime":60,"endTime":60.25,"instrument":0,"program":0,"isDrum":false},{"pitch":79,"velocity":108,"startTime":60,"endTime":60.25,"instrument":0,"program":0,"isDrum":false},{"pitch":69,"velocity":108,"startTime":60.3,"endTime":60.55,"instrument":0,"program":0,"isDrum":false},{"pitch":77,"velocity":108,"startTime":60.3,"endTime":60.55,"instrument":0,"program":0,"isDrum":false},{"pitch":79,"velocity":108,"startTime":60.9,"endTime":61.046875,"instrument":0,"program":0,"isDrum":false},{"pitch":76,"velocity":108,"startTime":61.05,"endTime":61.196875,"instrument":0,"program":0,"isDrum":false},{"pitch":69,"velocity":108,"startTime":61.199999999999996,"endTime":61.45,"instrument":0,"program":0,"isDrum":false},{"pitch":74,"velocity":108,"startTime":61.199999999999996,"endTime":61.45,"instrument":0,"program":0,"isDrum":false},{"pitch":76,"velocity":108,"startTime":61.8,"endTime":61.946875,"instrument":0,"program":0,"isDrum":false},{"pitch":73,"velocity":108,"startTime":61.949999999999996,"endTime":62.096875,"instrument":0,"program":0,"isDrum":false},{"pitch":74,"velocity":108,"startTime":62.099999999999994,"endTime":62.35,"instrument":0,"program":0,"isDrum":false},{"pitch":77,"velocity":108,"startTime":62.099999999999994,"endTime":62.35,"instrument":0,"program":0,"isDrum":false},{"pitch":81,"velocity":108,"startTime":62.099999999999994,"endTime":62.35,"instrument":0,"program":0,"isDrum":false},{"pitch":74,"velocity":108,"startTime":63,"endTime":63.25,"instrument":0,"program":0,"isDrum":false},{"pitch":79,"velocity":108,"startTime":63,"endTime":63.25,"instrument":0,"program":0,"isDrum":false},{"pitch":82,"velocity":108,"startTime":63,"endTime":63.25,"instrument":0,"program":0,"isDrum":false},{"pitch":72,"velocity":108,"startTime":63.9,"endTime":64.15,"instrument":0,"program":0,"isDrum":false},{"pitch":77,"velocity":108,"startTime":63.9,"endTime":64.15,"instrument":0,"program":0,"isDrum":false},{"pitch":81,"velocity":108,"startTime":63.9,"endTime":64.15,"instrument":0,"program":0,"isDrum":false},{"pitch":72,"velocity":108,"startTime":64.2,"endTime":64.45,"instrument":0,"program":0,"isDrum":false},{"pitch":77,"velocity":108,"startTime":64.2,"endTime":64.45,"instrument":0,"program":0,"isDrum":false},{"pitch":81,"velocity":108,"startTime":64.2,"endTime":64.45,"instrument":0,"program":0,"isDrum":false},{"pitch":72,"velocity":108,"startTime":64.5,"endTime":64.75,"instrument":0,"program":0,"isDrum":false},{"pitch":77,"velocity":108,"startTime":64.5,"endTime":64.75,"instrument":0,"program":0,"isDrum":false},{"pitch":81,"velocity":108,"startTime":64.5,"endTime":64.75,"instrument":0,"program":0,"isDrum":false},{"pitch":72,"velocity":108,"startTime":64.8,"endTime":64.946875,"instrument":0,"program":0,"isDrum":false},{"pitch":76,"velocity":108,"startTime":64.8,"endTime":64.946875,"instrument":0,"program":0,"isDrum":false},{"pitch":81,"velocity":108,"startTime":64.8,"endTime":64.946875,"instrument":0,"program":0,"isDrum":false},{"pitch":79,"velocity":108,"startTime":64.95,"endTime":65.096875,"instrument":0,"program":0,"isDrum":false},{"pitch":70,"velocity":108,"startTime":65.7,"endTime":65.95,"instrument":0,"program":0,"isDrum":false},{"pitch":74,"velocity":108,"startTime":65.7,"endTime":65.95,"instrument":0,"program":0,"isDrum":false},{"pitch":79,"velocity":108,"startTime":65.7,"endTime":65.95,"instrument":0,"program":0,"isDrum":false},{"pitch":69,"velocity":108,"startTime":66.6,"endTime":66.85,"instrument":0,"program":0,"isDrum":false},{"pitch":74,"velocity":108,"startTime":66.6,"endTime":66.85,"instrument":0,"program":0,"isDrum":false},{"pitch":77,"velocity":108,"startTime":66.6,"endTime":66.85,"instrument":0,"program":0,"isDrum":false},{"pitch":69,"velocity":108,"startTime":67.5,"endTime":67.75,"instrument":0,"program":0,"isDrum":false},{"pitch":77,"velocity":108,"startTime":67.5,"endTime":67.75,"instrument":0,"program":0,"isDrum":false},{"pitch":69,"velocity":108,"startTime":67.8,"endTime":68.05,"instrument":0,"program":0,"isDrum":false},{"pitch":79,"velocity":108,"startTime":67.8,"endTime":68.05,"instrument":0,"program":0,"isDrum":false},{"pitch":69,"velocity":108,"startTime":68.1,"endTime":68.35,"instrument":0,"program":0,"isDrum":false},{"pitch":76,"velocity":108,"startTime":68.1,"endTime":68.35,"instrument":0,"program":0,"isDrum":false},{"pitch":65,"velocity":108,"startTime":68.39999999999999,"endTime":68.8,"instrument":0,"program":0,"isDrum":false},{"pitch":69,"velocity":108,"startTime":68.39999999999999,"endTime":68.8,"instrument":0,"program":0,"isDrum":false},{"pitch":74,"velocity":108,"startTime":68.39999999999999,"endTime":68.8,"instrument":0,"program":0,"isDrum":false},{"pitch":74,"velocity":108,"startTime":68.85,"endTime":68.996875,"instrument":0,"program":0,"isDrum":false},{"pitch":76,"velocity":108,"startTime":69,"endTime":69.146875,"instrument":0,"program":0,"isDrum":false},{"pitch":77,"velocity":108,"startTime":69.14999999999999,"endTime":69.296875,"instrument":0,"program":0,"isDrum":false},{"pitch":74,"velocity":108,"startTime":69.3,"endTime":69.7,"instrument":0,"program":0,"isDrum":false},{"pitch":77,"velocity":108,"startTime":69.3,"endTime":69.7,"instrument":0,"program":0,"isDrum":false},{"pitch":81,"velocity":108,"startTime":69.3,"endTime":69.7,"instrument":0,"program":0,"isDrum":false},{"pitch":74,"velocity":108,"startTime":69.75,"endTime":69.896875,"instrument":0,"program":0,"isDrum":false},{"pitch":76,"velocity":108,"startTime":69.89999999999999,"endTime":70.046875,"instrument":0,"program":0,"isDrum":false},{"pitch":77,"velocity":108,"startTime":70.05,"endTime":70.196875,"instrument":0,"program":0,"isDrum":false},{"pitch":74,"velocity":108,"startTime":70.2,"endTime":70.6,"instrument":0,"program":0,"isDrum":false},{"pitch":77,"velocity":108,"startTime":70.2,"endTime":70.6,"instrument":0,"program":0,"isDrum":false},{"pitch":82,"velocity":108,"startTime":70.2,"endTime":70.6,"instrument":0,"program":0,"isDrum":false},{"pitch":74,"velocity":108,"startTime":70.64999999999999,"endTime":70.796875,"instrument":0,"program":0,"isDrum":false},{"pitch":76,"velocity":108,"startTime":70.8,"endTime":70.946875,"instrument":0,"program":0,"isDrum":false},{"pitch":77,"velocity":108,"startTime":70.95,"endTime":71.096875,"instrument":0,"program":0,"isDrum":false},{"pitch":72,"velocity":108,"startTime":71.1,"endTime":71.35,"instrument":0,"program":0,"isDrum":false},{"pitch":77,"velocity":108,"startTime":71.1,"endTime":71.35,"instrument":0,"program":0,"isDrum":false},{"pitch":81,"velocity":108,"startTime":71.1,"endTime":71.35,"instrument":0,"program":0,"isDrum":false},{"pitch":72,"velocity":108,"startTime":71.39999999999999,"endTime":71.65,"instrument":0,"program":0,"isDrum":false},{"pitch":77,"velocity":108,"startTime":71.39999999999999,"endTime":71.65,"instrument":0,"program":0,"isDrum":false},{"pitch":81,"velocity":108,"startTime":71.39999999999999,"endTime":71.65,"instrument":0,"program":0,"isDrum":false},{"pitch":77,"velocity":108,"startTime":71.7,"endTime":71.95,"instrument":0,"program":0,"isDrum":false},{"pitch":84,"velocity":108,"startTime":71.7,"endTime":71.95,"instrument":0,"program":0,"isDrum":false},{"pitch":72,"velocity":108,"startTime":72,"endTime":72.146875,"instrument":0,"program":0,"isDrum":false},{"pitch":76,"velocity":108,"startTime":72,"endTime":72.146875,"instrument":0,"program":0,"isDrum":false},{"pitch":81,"velocity":108,"startTime":72,"endTime":72.146875,"instrument":0,"program":0,"isDrum":false},{"pitch":79,"velocity":108,"startTime":72.14999999999999,"endTime":72.296875,"instrument":0,"program":0,"isDrum":false},{"pitch":70,"velocity":108,"startTime":72.89999999999999,"endTime":73.15,"instrument":0,"program":0,"isDrum":false},{"pitch":74,"velocity":108,"startTime":72.89999999999999,"endTime":73.15,"instrument":0,"program":0,"isDrum":false},{"pitch":79,"velocity":108,"startTime":72.89999999999999,"endTime":73.15,"instrument":0,"program":0,"isDrum":false},{"pitch":69,"velocity":108,"startTime":73.8,"endTime":74.05,"instrument":0,"program":0,"isDrum":false},{"pitch":74,"velocity":108,"startTime":73.8,"endTime":74.05,"instrument":0,"program":0,"isDrum":false},{"pitch":77,"velocity":108,"startTime":73.8,"endTime":74.05,"instrument":0,"program":0,"isDrum":false},{"pitch":69,"velocity":108,"startTime":74.7,"endTime":74.95,"instrument":0,"program":0,"isDrum":false},{"pitch":77,"velocity":108,"startTime":74.7,"endTime":74.95,"instrument":0,"program":0,"isDrum":false},{"pitch":69,"velocity":108,"startTime":75,"endTime":75.25,"instrument":0,"program":0,"isDrum":false},{"pitch":79,"velocity":108,"startTime":75,"endTime":75.25,"instrument":0,"program":0,"isDrum":false},{"pitch":69,"velocity":108,"startTime":75.3,"endTime":75.55,"instrument":0,"program":0,"isDrum":false},{"pitch":76,"velocity":108,"startTime":75.3,"endTime":75.55,"instrument":0,"program":0,"isDrum":false},{"pitch":65,"velocity":108,"startTime":75.6,"endTime":76,"instrument":0,"program":0,"isDrum":false},{"pitch":69,"velocity":108,"startTime":75.6,"endTime":76,"instrument":0,"program":0,"isDrum":false},{"pitch":74,"velocity":108,"startTime":75.6,"endTime":76,"instrument":0,"program":0,"isDrum":false},{"pitch":62,"velocity":108,"startTime":76.5,"endTime":77.625,"instrument":0,"program":0,"isDrum":false},{"pitch":26,"velocity":110,"startTime":3.5999999999999996,"endTime":4.425,"instrument":1,"program":0,"isDrum":false},{"pitch":38,"velocity":110,"startTime":3.5999999999999996,"endTime":4.425,"instrument":1,"program":0,"isDrum":false},{"pitch":26,"velocity":110,"startTime":4.5,"endTime":4.8999999999999995,"instrument":1,"program":0,"isDrum":false},{"pitch":38,"velocity":110,"startTime":4.5,"endTime":4.8999999999999995,"instrument":1,"program":0,"isDrum":false},{"pitch":26,"velocity":110,"startTime":4.95,"endTime":5.35,"instrument":1,"program":0,"isDrum":false},{"pitch":38,"velocity":110,"startTime":4.95,"endTime":5.35,"instrument":1,"program":0,"isDrum":false},{"pitch":38,"velocity":110,"startTime":5.3999999999999995,"endTime":5.6499999999999995,"instrument":1,"program":0,"isDrum":false},{"pitch":50,"velocity":110,"startTime":5.3999999999999995,"endTime":5.6499999999999995,"instrument":1,"program":0,"isDrum":false},{"pitch":38,"velocity":110,"startTime":5.7,"endTime":5.846875,"instrument":1,"program":0,"isDrum":false},{"pitch":50,"velocity":110,"startTime":5.7,"endTime":5.846875,"instrument":1,"program":0,"isDrum":false},{"pitch":38,"velocity":110,"startTime":5.85,"endTime":6.1,"instrument":1,"program":0,"isDrum":false},{"pitch":50,"velocity":110,"startTime":5.85,"endTime":6.1,"instrument":1,"program":0,"isDrum":false},{"pitch":36,"velocity":110,"startTime":6.1499999999999995,"endTime":6.296874999999999,"instrument":1,"program":0,"isDrum":false},{"pitch":48,"velocity":110,"startTime":6.1499999999999995,"endTime":6.296874999999999,"instrument":1,"program":0,"isDrum":false},{"pitch":34,"velocity":110,"startTime":6.3,"endTime":6.55,"instrument":1,"program":0,"isDrum":false},{"pitch":46,"velocity":110,"startTime":6.3,"endTime":6.55,"instrument":1,"program":0,"isDrum":false},{"pitch":34,"velocity":110,"startTime":6.6,"endTime":6.746874999999999,"instrument":1,"program":0,"isDrum":false},{"pitch":46,"velocity":110,"startTime":6.6,"endTime":6.746874999999999,"instrument":1,"program":0,"isDrum":false},{"pitch":34,"velocity":110,"startTime":6.75,"endTime":6.999999999999999,"instrument":1,"program":0,"isDrum":false},{"pitch":46,"velocity":110,"startTime":6.75,"endTime":6.999999999999999,"instrument":1,"program":0,"isDrum":false},{"pitch":34,"velocity":110,"startTime":7.05,"endTime":7.1968749999999995,"instrument":1,"program":0,"isDrum":false},{"pitch":46,"velocity":110,"startTime":7.05,"endTime":7.1968749999999995,"instrument":1,"program":0,"isDrum":false},{"pitch":33,"velocity":110,"startTime":7.199999999999999,"endTime":7.449999999999999,"instrument":1,"program":0,"isDrum":false},{"pitch":45,"velocity":110,"startTime":7.199999999999999,"endTime":7.449999999999999,"instrument":1,"program":0,"isDrum":false},{"pitch":33,"velocity":110,"startTime":7.5,"endTime":7.646875,"instrument":1,"program":0,"isDrum":false},{"pitch":45,"velocity":110,"startTime":7.5,"endTime":7.646875,"instrument":1,"program":0,"isDrum":false},{"pitch":33,"velocity":110,"startTime":7.6499999999999995,"endTime":7.8999999999999995,"instrument":1,"program":0,"isDrum":false},{"pitch":45,"velocity":110,"startTime":7.6499999999999995,"endTime":7.8999999999999995,"instrument":1,"program":0,"isDrum":false},{"pitch":33,"velocity":110,"startTime":7.949999999999999,"endTime":8.096874999999999,"instrument":1,"program":0,"isDrum":false},{"pitch":45,"velocity":110,"startTime":7.949999999999999,"endTime":8.096874999999999,"instrument":1,"program":0,"isDrum":false},{"pitch":38,"velocity":110,"startTime":8.1,"endTime":8.35,"instrument":1,"program":0,"isDrum":false},{"pitch":50,"velocity":110,"startTime":8.1,"endTime":8.35,"instrument":1,"program":0,"isDrum":false},{"pitch":38,"velocity":110,"startTime":8.4,"endTime":8.546875,"instrument":1,"program":0,"isDrum":false},{"pitch":50,"velocity":110,"startTime":8.4,"endTime":8.546875,"instrument":1,"program":0,"isDrum":false},{"pitch":38,"velocity":110,"startTime":8.549999999999999,"endTime":8.799999999999999,"instrument":1,"program":0,"isDrum":false},{"pitch":50,"velocity":110,"startTime":8.549999999999999,"endTime":8.799999999999999,"instrument":1,"program":0,"isDrum":false},{"pitch":38,"velocity":110,"startTime":8.85,"endTime":8.996875,"instrument":1,"program":0,"isDrum":false},{"pitch":50,"velocity":110,"startTime":8.85,"endTime":8.996875,"instrument":1,"program":0,"isDrum":false},{"pitch":34,"velocity":110,"startTime":9,"endTime":9.25,"instrument":1,"program":0,"isDrum":false},{"pitch":46,"velocity":110,"startTime":9,"endTime":9.25,"instrument":1,"program":0,"isDrum":false},{"pitch":34,"velocity":110,"startTime":9.299999999999999,"endTime":9.446874999999999,"instrument":1,"program":0,"isDrum":false},{"pitch":46,"velocity":110,"startTime":9.299999999999999,"endTime":9.446874999999999,"instrument":1,"program":0,"isDrum":false},{"pitch":34,"velocity":110,"startTime":9.45,"endTime":9.700000000000001,"instrument":1,"program":0,"isDrum":false},{"pitch":46,"velocity":110,"startTime":9.45,"endTime":9.700000000000001,"instrument":1,"program":0,"isDrum":false},{"pitch":34,"velocity":110,"startTime":9.75,"endTime":9.896875,"instrument":1,"program":0,"isDrum":false},{"pitch":46,"velocity":110,"startTime":9.75,"endTime":9.896875,"instrument":1,"program":0,"isDrum":false},{"pitch":34,"velocity":110,"startTime":9.9,"endTime":10.15,"instrument":1,"program":0,"isDrum":false},{"pitch":46,"velocity":110,"startTime":9.9,"endTime":10.15,"instrument":1,"program":0,"isDrum":false},{"pitch":34,"velocity":110,"startTime":10.2,"endTime":10.346875,"instrument":1,"program":0,"isDrum":false},{"pitch":46,"velocity":110,"startTime":10.2,"endTime":10.346875,"instrument":1,"program":0,"isDrum":false},{"pitch":34,"velocity":110,"startTime":10.35,"endTime":10.6,"instrument":1,"program":0,"isDrum":false},{"pitch":46,"velocity":110,"startTime":10.35,"endTime":10.6,"instrument":1,"program":0,"isDrum":false},{"pitch":34,"velocity":110,"startTime":10.65,"endTime":10.796875,"instrument":1,"program":0,"isDrum":false},{"pitch":46,"velocity":110,"startTime":10.65,"endTime":10.796875,"instrument":1,"program":0,"isDrum":false},{"pitch":33,"velocity":110,"startTime":10.799999999999999,"endTime":11.05,"instrument":1,"program":0,"isDrum":false},{"pitch":45,"velocity":110,"startTime":10.799999999999999,"endTime":11.05,"instrument":1,"program":0,"isDrum":false},{"pitch":33,"velocity":110,"startTime":11.1,"endTime":11.246875000000001,"instrument":1,"program":0,"isDrum":false},{"pitch":45,"velocity":110,"startTime":11.1,"endTime":11.246875000000001,"instrument":1,"program":0,"isDrum":false},{"pitch":33,"velocity":110,"startTime":11.25,"endTime":11.5,"instrument":1,"program":0,"isDrum":false},{"pitch":45,"velocity":110,"startTime":11.25,"endTime":11.5,"instrument":1,"program":0,"isDrum":false},{"pitch":33,"velocity":110,"startTime":11.549999999999999,"endTime":11.696875,"instrument":1,"program":0,"isDrum":false},{"pitch":45,"velocity":110,"startTime":11.549999999999999,"endTime":11.696875,"instrument":1,"program":0,"isDrum":false},{"pitch":38,"velocity":110,"startTime":11.7,"endTime":11.950000000000001,"instrument":1,"program":0,"isDrum":false},{"pitch":50,"velocity":110,"startTime":11.7,"endTime":11.950000000000001,"instrument":1,"program":0,"isDrum":false},{"pitch":38,"velocity":110,"startTime":12,"endTime":12.146875,"instrument":1,"program":0,"isDrum":false},{"pitch":50,"velocity":110,"startTime":12,"endTime":12.146875,"instrument":1,"program":0,"isDrum":false},{"pitch":38,"velocity":110,"startTime":12.15,"endTime":12.4,"instrument":1,"program":0,"isDrum":false},{"pitch":50,"velocity":110,"startTime":12.15,"endTime":12.4,"instrument":1,"program":0,"isDrum":false},{"pitch":38,"velocity":110,"startTime":12.45,"endTime":12.596875,"instrument":1,"program":0,"isDrum":false},{"pitch":50,"velocity":110,"startTime":12.45,"endTime":12.596875,"instrument":1,"program":0,"isDrum":false},{"pitch":38,"velocity":110,"startTime":12.6,"endTime":12.85,"instrument":1,"program":0,"isDrum":false},{"pitch":50,"velocity":110,"startTime":12.6,"endTime":12.85,"instrument":1,"program":0,"isDrum":false},{"pitch":38,"velocity":110,"startTime":12.9,"endTime":13.046875,"instrument":1,"program":0,"isDrum":false},{"pitch":50,"velocity":110,"startTime":12.9,"endTime":13.046875,"instrument":1,"program":0,"isDrum":false},{"pitch":38,"velocity":110,"startTime":13.049999999999999,"endTime":13.3,"instrument":1,"program":0,"isDrum":false},{"pitch":50,"velocity":110,"startTime":13.049999999999999,"endTime":13.3,"instrument":1,"program":0,"isDrum":false},{"pitch":38,"velocity":110,"startTime":13.35,"endTime":13.496875000000001,"instrument":1,"program":0,"isDrum":false},{"pitch":50,"velocity":110,"startTime":13.35,"endTime":13.496875000000001,"instrument":1,"program":0,"isDrum":false},{"pitch":34,"velocity":110,"startTime":13.5,"endTime":13.75,"instrument":1,"program":0,"isDrum":false},{"pitch":46,"velocity":110,"startTime":13.5,"endTime":13.75,"instrument":1,"program":0,"isDrum":false},{"pitch":34,"velocity":110,"startTime":13.799999999999999,"endTime":13.946875,"instrument":1,"program":0,"isDrum":false},{"pitch":46,"velocity":110,"startTime":13.799999999999999,"endTime":13.946875,"instrument":1,"program":0,"isDrum":false},{"pitch":34,"velocity":110,"startTime":13.95,"endTime":14.200000000000001,"instrument":1,"program":0,"isDrum":false},{"pitch":46,"velocity":110,"startTime":13.95,"endTime":14.200000000000001,"instrument":1,"program":0,"isDrum":false},{"pitch":34,"velocity":110,"startTime":14.25,"endTime":14.396875,"instrument":1,"program":0,"isDrum":false},{"pitch":46,"velocity":110,"startTime":14.25,"endTime":14.396875,"instrument":1,"program":0,"isDrum":false},{"pitch":31,"velocity":110,"startTime":14.399999999999999,"endTime":14.65,"instrument":1,"program":0,"isDrum":false},{"pitch":43,"velocity":110,"startTime":14.399999999999999,"endTime":14.65,"instrument":1,"program":0,"isDrum":false},{"pitch":31,"velocity":110,"startTime":14.7,"endTime":14.846875,"instrument":1,"program":0,"isDrum":false},{"pitch":43,"velocity":110,"startTime":14.7,"endTime":14.846875,"instrument":1,"program":0,"isDrum":false},{"pitch":31,"velocity":110,"startTime":14.85,"endTime":15.1,"instrument":1,"program":0,"isDrum":false},{"pitch":43,"velocity":110,"startTime":14.85,"endTime":15.1,"instrument":1,"program":0,"isDrum":false},{"pitch":31,"velocity":110,"startTime":15.149999999999999,"endTime":15.296875,"instrument":1,"program":0,"isDrum":false},{"pitch":43,"velocity":110,"startTime":15.149999999999999,"endTime":15.296875,"instrument":1,"program":0,"isDrum":false},{"pitch":38,"velocity":110,"startTime":15.299999999999999,"endTime":15.55,"instrument":1,"program":0,"isDrum":false},{"pitch":50,"velocity":110,"startTime":15.299999999999999,"endTime":15.55,"instrument":1,"program":0,"isDrum":false},{"pitch":38,"velocity":110,"startTime":15.6,"endTime":15.746875,"instrument":1,"program":0,"isDrum":false},{"pitch":50,"velocity":110,"startTime":15.6,"endTime":15.746875,"instrument":1,"program":0,"isDrum":false},{"pitch":38,"velocity":110,"startTime":15.75,"endTime":16,"instrument":1,"program":0,"isDrum":false},{"pitch":50,"velocity":110,"startTime":15.75,"endTime":16,"instrument":1,"program":0,"isDrum":false},{"pitch":38,"velocity":110,"startTime":16.05,"endTime":16.196875,"instrument":1,"program":0,"isDrum":false},{"pitch":50,"velocity":110,"startTime":16.05,"endTime":16.196875,"instrument":1,"program":0,"isDrum":false},{"pitch":34,"velocity":110,"startTime":16.2,"endTime":16.45,"instrument":1,"program":0,"isDrum":false},{"pitch":46,"velocity":110,"startTime":16.2,"endTime":16.45,"instrument":1,"program":0,"isDrum":false},{"pitch":34,"velocity":110,"startTime":16.5,"endTime":16.646875,"instrument":1,"program":0,"isDrum":false},{"pitch":46,"velocity":110,"startTime":16.5,"endTime":16.646875,"instrument":1,"program":0,"isDrum":false},{"pitch":34,"velocity":110,"startTime":16.65,"endTime":16.9,"instrument":1,"program":0,"isDrum":false},{"pitch":46,"velocity":110,"startTime":16.65,"endTime":16.9,"instrument":1,"program":0,"isDrum":false},{"pitch":34,"velocity":110,"startTime":16.95,"endTime":17.096875,"instrument":1,"program":0,"isDrum":false},{"pitch":46,"velocity":110,"startTime":16.95,"endTime":17.096875,"instrument":1,"program":0,"isDrum":false},{"pitch":38,"velocity":110,"startTime":17.099999999999998,"endTime":17.35,"instrument":1,"program":0,"isDrum":false},{"pitch":50,"velocity":110,"startTime":17.099999999999998,"endTime":17.35,"instrument":1,"program":0,"isDrum":false},{"pitch":38,"velocity":110,"startTime":17.4,"endTime":17.546875,"instrument":1,"program":0,"isDrum":false},{"pitch":50,"velocity":110,"startTime":17.4,"endTime":17.546875,"instrument":1,"program":0,"isDrum":false},{"pitch":38,"velocity":110,"startTime":17.55,"endTime":17.8,"instrument":1,"program":0,"isDrum":false},{"pitch":50,"velocity":110,"startTime":17.55,"endTime":17.8,"instrument":1,"program":0,"isDrum":false},{"pitch":38,"velocity":110,"startTime":17.849999999999998,"endTime":17.996875,"instrument":1,"program":0,"isDrum":false},{"pitch":50,"velocity":110,"startTime":17.849999999999998,"endTime":17.996875,"instrument":1,"program":0,"isDrum":false},{"pitch":33,"velocity":110,"startTime":18,"endTime":18.25,"instrument":1,"program":0,"isDrum":false},{"pitch":45,"velocity":110,"startTime":18,"endTime":18.25,"instrument":1,"program":0,"isDrum":false},{"pitch":33,"velocity":110,"startTime":18.3,"endTime":18.446875,"instrument":1,"program":0,"isDrum":false},{"pitch":45,"velocity":110,"startTime":18.3,"endTime":18.446875,"instrument":1,"program":0,"isDrum":false},{"pitch":33,"velocity":110,"startTime":18.45,"endTime":18.7,"instrument":1,"program":0,"isDrum":false},{"pitch":45,"velocity":110,"startTime":18.45,"endTime":18.7,"instrument":1,"program":0,"isDrum":false},{"pitch":33,"velocity":110,"startTime":18.75,"endTime":18.896875,"instrument":1,"program":0,"isDrum":false},{"pitch":45,"velocity":110,"startTime":18.75,"endTime":18.896875,"instrument":1,"program":0,"isDrum":false},{"pitch":33,"velocity":110,"startTime":18.9,"endTime":19.15,"instrument":1,"program":0,"isDrum":false},{"pitch":45,"velocity":110,"startTime":18.9,"endTime":19.15,"instrument":1,"program":0,"isDrum":false},{"pitch":33,"velocity":110,"startTime":19.2,"endTime":19.346874999999997,"instrument":1,"program":0,"isDrum":false},{"pitch":45,"velocity":110,"startTime":19.2,"endTime":19.346874999999997,"instrument":1,"program":0,"isDrum":false},{"pitch":33,"velocity":110,"startTime":19.349999999999998,"endTime":19.599999999999998,"instrument":1,"program":0,"isDrum":false},{"pitch":45,"velocity":110,"startTime":19.349999999999998,"endTime":19.599999999999998,"instrument":1,"program":0,"isDrum":false},{"pitch":33,"velocity":110,"startTime":19.65,"endTime":19.796874999999996,"instrument":1,"program":0,"isDrum":false},{"pitch":45,"velocity":110,"startTime":19.65,"endTime":19.796874999999996,"instrument":1,"program":0,"isDrum":false},{"pitch":38,"velocity":110,"startTime":19.8,"endTime":20.049999999999997,"instrument":1,"program":0,"isDrum":false},{"pitch":50,"velocity":110,"startTime":19.8,"endTime":20.049999999999997,"instrument":1,"program":0,"isDrum":false},{"pitch":38,"velocity":110,"startTime":20.099999999999998,"endTime":20.246875,"instrument":1,"program":0,"isDrum":false},{"pitch":50,"velocity":110,"startTime":20.099999999999998,"endTime":20.246875,"instrument":1,"program":0,"isDrum":false},{"pitch":38,"velocity":110,"startTime":20.25,"endTime":20.499999999999996,"instrument":1,"program":0,"isDrum":false},{"pitch":50,"velocity":110,"startTime":20.25,"endTime":20.499999999999996,"instrument":1,"program":0,"isDrum":false},{"pitch":36,"velocity":110,"startTime":20.55,"endTime":20.696875,"instrument":1,"program":0,"isDrum":false},{"pitch":48,"velocity":110,"startTime":20.55,"endTime":20.696875,"instrument":1,"program":0,"isDrum":false},{"pitch":34,"velocity":110,"startTime":20.7,"endTime":20.95,"instrument":1,"program":0,"isDrum":false},{"pitch":46,"velocity":110,"startTime":20.7,"endTime":20.95,"instrument":1,"program":0,"isDrum":false},{"pitch":34,"velocity":110,"startTime":21,"endTime":21.146874999999998,"instrument":1,"program":0,"isDrum":false},{"pitch":46,"velocity":110,"startTime":21,"endTime":21.146874999999998,"instrument":1,"program":0,"isDrum":false},{"pitch":34,"velocity":110,"startTime":21.15,"endTime":21.4,"instrument":1,"program":0,"isDrum":false},{"pitch":46,"velocity":110,"startTime":21.15,"endTime":21.4,"instrument":1,"program":0,"isDrum":false},{"pitch":34,"velocity":110,"startTime":21.45,"endTime":21.596874999999997,"instrument":1,"program":0,"isDrum":false},{"pitch":46,"velocity":110,"startTime":21.45,"endTime":21.596874999999997,"instrument":1,"program":0,"isDrum":false},{"pitch":33,"velocity":110,"startTime":21.599999999999998,"endTime":21.849999999999998,"instrument":1,"program":0,"isDrum":false},{"pitch":45,"velocity":110,"startTime":21.599999999999998,"endTime":21.849999999999998,"instrument":1,"program":0,"isDrum":false},{"pitch":33,"velocity":110,"startTime":21.9,"endTime":22.046874999999996,"instrument":1,"program":0,"isDrum":false},{"pitch":45,"velocity":110,"startTime":21.9,"endTime":22.046874999999996,"instrument":1,"program":0,"isDrum":false},{"pitch":33,"velocity":110,"startTime":22.05,"endTime":22.299999999999997,"instrument":1,"program":0,"isDrum":false},{"pitch":45,"velocity":110,"startTime":22.05,"endTime":22.299999999999997,"instrument":1,"program":0,"isDrum":false},{"pitch":33,"velocity":110,"startTime":22.349999999999998,"endTime":22.496875,"instrument":1,"program":0,"isDrum":false},{"pitch":45,"velocity":110,"startTime":22.349999999999998,"endTime":22.496875,"instrument":1,"program":0,"isDrum":false},{"pitch":38,"velocity":110,"startTime":22.5,"endTime":22.749999999999996,"instrument":1,"program":0,"isDrum":false},{"pitch":50,"velocity":110,"startTime":22.5,"endTime":22.749999999999996,"instrument":1,"program":0,"isDrum":false},{"pitch":38,"velocity":110,"startTime":22.8,"endTime":22.946875,"instrument":1,"program":0,"isDrum":false},{"pitch":50,"velocity":110,"startTime":22.8,"endTime":22.946875,"instrument":1,"program":0,"isDrum":false},{"pitch":38,"velocity":110,"startTime":22.95,"endTime":23.2,"instrument":1,"program":0,"isDrum":false},{"pitch":50,"velocity":110,"startTime":22.95,"endTime":23.2,"instrument":1,"program":0,"isDrum":false},{"pitch":38,"velocity":110,"startTime":23.25,"endTime":23.396874999999998,"instrument":1,"program":0,"isDrum":false},{"pitch":50,"velocity":110,"startTime":23.25,"endTime":23.396874999999998,"instrument":1,"program":0,"isDrum":false},{"pitch":34,"velocity":110,"startTime":23.4,"endTime":23.65,"instrument":1,"program":0,"isDrum":false},{"pitch":46,"velocity":110,"startTime":23.4,"endTime":23.65,"instrument":1,"program":0,"isDrum":false},{"pitch":34,"velocity":110,"startTime":23.7,"endTime":23.846874999999997,"instrument":1,"program":0,"isDrum":false},{"pitch":46,"velocity":110,"startTime":23.7,"endTime":23.846874999999997,"instrument":1,"program":0,"isDrum":false},{"pitch":34,"velocity":110,"startTime":23.849999999999998,"endTime":24.099999999999998,"instrument":1,"program":0,"isDrum":false},{"pitch":46,"velocity":110,"startTime":23.849999999999998,"endTime":24.099999999999998,"instrument":1,"program":0,"isDrum":false},{"pitch":34,"velocity":110,"startTime":24.15,"endTime":24.296874999999996,"instrument":1,"program":0,"isDrum":false},{"pitch":46,"velocity":110,"startTime":24.15,"endTime":24.296874999999996,"instrument":1,"program":0,"isDrum":false},{"pitch":29,"velocity":110,"startTime":24.3,"endTime":24.549999999999997,"instrument":1,"program":0,"isDrum":false},{"pitch":41,"velocity":110,"startTime":24.3,"endTime":24.549999999999997,"instrument":1,"program":0,"isDrum":false},{"pitch":29,"velocity":110,"startTime":24.599999999999998,"endTime":24.746875,"instrument":1,"program":0,"isDrum":false},{"pitch":41,"velocity":110,"startTime":24.599999999999998,"endTime":24.746875,"instrument":1,"program":0,"isDrum":false},{"pitch":29,"velocity":110,"startTime":24.75,"endTime":24.999999999999996,"instrument":1,"program":0,"isDrum":false},{"pitch":41,"velocity":110,"startTime":24.75,"endTime":24.999999999999996,"instrument":1,"program":0,"isDrum":false},{"pitch":29,"velocity":110,"startTime":25.05,"endTime":25.196875,"instrument":1,"program":0,"isDrum":false},{"pitch":41,"velocity":110,"startTime":25.05,"endTime":25.196875,"instrument":1,"program":0,"isDrum":false},{"pitch":36,"velocity":110,"startTime":25.2,"endTime":25.45,"instrument":1,"program":0,"isDrum":false},{"pitch":48,"velocity":110,"startTime":25.2,"endTime":25.45,"instrument":1,"program":0,"isDrum":false},{"pitch":36,"velocity":110,"startTime":25.5,"endTime":25.646874999999998,"instrument":1,"program":0,"isDrum":false},{"pitch":48,"velocity":110,"startTime":25.5,"endTime":25.646874999999998,"instrument":1,"program":0,"isDrum":false},{"pitch":33,"velocity":110,"startTime":25.65,"endTime":25.9,"instrument":1,"program":0,"isDrum":false},{"pitch":45,"velocity":110,"startTime":25.65,"endTime":25.9,"instrument":1,"program":0,"isDrum":false},{"pitch":33,"velocity":110,"startTime":25.95,"endTime":26.096874999999997,"instrument":1,"program":0,"isDrum":false},{"pitch":45,"velocity":110,"startTime":25.95,"endTime":26.096874999999997,"instrument":1,"program":0,"isDrum":false},{"pitch":38,"velocity":110,"startTime":26.099999999999998,"endTime":26.349999999999998,"instrument":1,"program":0,"isDrum":false},{"pitch":50,"velocity":110,"startTime":26.099999999999998,"endTime":26.349999999999998,"instrument":1,"program":0,"isDrum":false},{"pitch":38,"velocity":110,"startTime":26.4,"endTime":26.546874999999996,"instrument":1,"program":0,"isDrum":false},{"pitch":50,"velocity":110,"startTime":26.4,"endTime":26.546874999999996,"instrument":1,"program":0,"isDrum":false},{"pitch":38,"velocity":110,"startTime":26.55,"endTime":26.799999999999997,"instrument":1,"program":0,"isDrum":false},{"pitch":50,"velocity":110,"startTime":26.55,"endTime":26.799999999999997,"instrument":1,"program":0,"isDrum":false},{"pitch":38,"velocity":110,"startTime":26.849999999999998,"endTime":26.996875,"instrument":1,"program":0,"isDrum":false},{"pitch":50,"velocity":110,"startTime":26.849999999999998,"endTime":26.996875,"instrument":1,"program":0,"isDrum":false},{"pitch":38,"velocity":110,"startTime":27,"endTime":27.249999999999996,"instrument":1,"program":0,"isDrum":false},{"pitch":50,"velocity":110,"startTime":27,"endTime":27.249999999999996,"instrument":1,"program":0,"isDrum":false},{"pitch":38,"velocity":110,"startTime":27.3,"endTime":27.446875,"instrument":1,"program":0,"isDrum":false},{"pitch":50,"velocity":110,"startTime":27.3,"endTime":27.446875,"instrument":1,"program":0,"isDrum":false},{"pitch":38,"velocity":110,"startTime":27.45,"endTime":27.7,"instrument":1,"program":0,"isDrum":false},{"pitch":50,"velocity":110,"startTime":27.45,"endTime":27.7,"instrument":1,"program":0,"isDrum":false},{"pitch":38,"velocity":110,"startTime":27.75,"endTime":27.896874999999998,"instrument":1,"program":0,"isDrum":false},{"pitch":50,"velocity":110,"startTime":27.75,"endTime":27.896874999999998,"instrument":1,"program":0,"isDrum":false},{"pitch":34,"velocity":110,"startTime":27.9,"endTime":28.15,"instrument":1,"program":0,"isDrum":false},{"pitch":46,"velocity":110,"startTime":27.9,"endTime":28.15,"instrument":1,"program":0,"isDrum":false},{"pitch":34,"velocity":110,"startTime":28.2,"endTime":28.346874999999997,"instrument":1,"program":0,"isDrum":false},{"pitch":46,"velocity":110,"startTime":28.2,"endTime":28.346874999999997,"instrument":1,"program":0,"isDrum":false},{"pitch":34,"velocity":110,"startTime":28.349999999999998,"endTime":28.599999999999998,"instrument":1,"program":0,"isDrum":false},{"pitch":46,"velocity":110,"startTime":28.349999999999998,"endTime":28.599999999999998,"instrument":1,"program":0,"isDrum":false},{"pitch":34,"velocity":110,"startTime":28.65,"endTime":28.796874999999996,"instrument":1,"program":0,"isDrum":false},{"pitch":46,"velocity":110,"startTime":28.65,"endTime":28.796874999999996,"instrument":1,"program":0,"isDrum":false},{"pitch":31,"velocity":110,"startTime":28.799999999999997,"endTime":29.049999999999997,"instrument":1,"program":0,"isDrum":false},{"pitch":43,"velocity":110,"startTime":28.799999999999997,"endTime":29.049999999999997,"instrument":1,"program":0,"isDrum":false},{"pitch":31,"velocity":110,"startTime":29.099999999999998,"endTime":29.246874999999996,"instrument":1,"program":0,"isDrum":false},{"pitch":43,"velocity":110,"startTime":29.099999999999998,"endTime":29.246874999999996,"instrument":1,"program":0,"isDrum":false},{"pitch":31,"velocity":110,"startTime":29.25,"endTime":29.499999999999996,"instrument":1,"program":0,"isDrum":false},{"pitch":43,"velocity":110,"startTime":29.25,"endTime":29.499999999999996,"instrument":1,"program":0,"isDrum":false},{"pitch":31,"velocity":110,"startTime":29.549999999999997,"endTime":29.696875,"instrument":1,"program":0,"isDrum":false},{"pitch":43,"velocity":110,"startTime":29.549999999999997,"endTime":29.696875,"instrument":1,"program":0,"isDrum":false},{"pitch":38,"velocity":110,"startTime":29.7,"endTime":29.949999999999996,"instrument":1,"program":0,"isDrum":false},{"pitch":50,"velocity":110,"startTime":29.7,"endTime":29.949999999999996,"instrument":1,"program":0,"isDrum":false},{"pitch":38,"velocity":110,"startTime":30,"endTime":30.146874999999998,"instrument":1,"program":0,"isDrum":false},{"pitch":50,"velocity":110,"startTime":30,"endTime":30.146874999999998,"instrument":1,"program":0,"isDrum":false},{"pitch":38,"velocity":110,"startTime":30.15,"endTime":30.4,"instrument":1,"program":0,"isDrum":false},{"pitch":50,"velocity":110,"startTime":30.15,"endTime":30.4,"instrument":1,"program":0,"isDrum":false},{"pitch":38,"velocity":110,"startTime":30.45,"endTime":30.596874999999997,"instrument":1,"program":0,"isDrum":false},{"pitch":50,"velocity":110,"startTime":30.45,"endTime":30.596874999999997,"instrument":1,"program":0,"isDrum":false},{"pitch":34,"velocity":110,"startTime":30.599999999999998,"endTime":30.849999999999998,"instrument":1,"program":0,"isDrum":false},{"pitch":46,"velocity":110,"startTime":30.599999999999998,"endTime":30.849999999999998,"instrument":1,"program":0,"isDrum":false},{"pitch":34,"velocity":110,"startTime":30.9,"endTime":31.046874999999996,"instrument":1,"program":0,"isDrum":false},{"pitch":46,"velocity":110,"startTime":30.9,"endTime":31.046874999999996,"instrument":1,"program":0,"isDrum":false},{"pitch":34,"velocity":110,"startTime":31.049999999999997,"endTime":31.299999999999997,"instrument":1,"program":0,"isDrum":false},{"pitch":46,"velocity":110,"startTime":31.049999999999997,"endTime":31.299999999999997,"instrument":1,"program":0,"isDrum":false},{"pitch":34,"velocity":110,"startTime":31.349999999999998,"endTime":31.496874999999996,"instrument":1,"program":0,"isDrum":false},{"pitch":46,"velocity":110,"startTime":31.349999999999998,"endTime":31.496874999999996,"instrument":1,"program":0,"isDrum":false},{"pitch":38,"velocity":110,"startTime":31.5,"endTime":31.749999999999996,"instrument":1,"program":0,"isDrum":false},{"pitch":50,"velocity":110,"startTime":31.5,"endTime":31.749999999999996,"instrument":1,"program":0,"isDrum":false},{"pitch":38,"velocity":110,"startTime":31.799999999999997,"endTime":31.946875,"instrument":1,"program":0,"isDrum":false},{"pitch":50,"velocity":110,"startTime":31.799999999999997,"endTime":31.946875,"instrument":1,"program":0,"isDrum":false},{"pitch":38,"velocity":110,"startTime":31.95,"endTime":32.199999999999996,"instrument":1,"program":0,"isDrum":false},{"pitch":50,"velocity":110,"startTime":31.95,"endTime":32.199999999999996,"instrument":1,"program":0,"isDrum":false},{"pitch":38,"velocity":110,"startTime":32.25,"endTime":32.396874999999994,"instrument":1,"program":0,"isDrum":false},{"pitch":50,"velocity":110,"startTime":32.25,"endTime":32.396874999999994,"instrument":1,"program":0,"isDrum":false},{"pitch":33,"velocity":110,"startTime":32.4,"endTime":32.65,"instrument":1,"program":0,"isDrum":false},{"pitch":45,"velocity":110,"startTime":32.4,"endTime":32.65,"instrument":1,"program":0,"isDrum":false},{"pitch":33,"velocity":110,"startTime":32.699999999999996,"endTime":32.846875,"instrument":1,"program":0,"isDrum":false},{"pitch":45,"velocity":110,"startTime":32.699999999999996,"endTime":32.846875,"instrument":1,"program":0,"isDrum":false},{"pitch":33,"velocity":110,"startTime":32.85,"endTime":33.099999999999994,"instrument":1,"program":0,"isDrum":false},{"pitch":45,"velocity":110,"startTime":32.85,"endTime":33.099999999999994,"instrument":1,"program":0,"isDrum":false},{"pitch":33,"velocity":110,"startTime":33.15,"endTime":33.296875,"instrument":1,"program":0,"isDrum":false},{"pitch":45,"velocity":110,"startTime":33.15,"endTime":33.296875,"instrument":1,"program":0,"isDrum":false},{"pitch":38,"velocity":110,"startTime":33.3,"endTime":33.55,"instrument":1,"program":0,"isDrum":false},{"pitch":50,"velocity":110,"startTime":33.3,"endTime":33.55,"instrument":1,"program":0,"isDrum":false},{"pitch":38,"velocity":110,"startTime":33.6,"endTime":33.849999999999994,"instrument":1,"program":0,"isDrum":false},{"pitch":50,"velocity":110,"startTime":33.6,"endTime":33.849999999999994,"instrument":1,"program":0,"isDrum":false},{"pitch":36,"velocity":110,"startTime":33.9,"endTime":34.15,"instrument":1,"program":0,"isDrum":false},{"pitch":48,"velocity":110,"startTime":33.9,"endTime":34.15,"instrument":1,"program":0,"isDrum":false},{"pitch":36,"velocity":110,"startTime":34.199999999999996,"endTime":34.449999999999996,"instrument":1,"program":0,"isDrum":false},{"pitch":48,"velocity":110,"startTime":34.199999999999996,"endTime":34.449999999999996,"instrument":1,"program":0,"isDrum":false},{"pitch":36,"velocity":110,"startTime":34.5,"endTime":34.75,"instrument":1,"program":0,"isDrum":false},{"pitch":48,"velocity":110,"startTime":34.5,"endTime":34.75,"instrument":1,"program":0,"isDrum":false},{"pitch":34,"velocity":110,"startTime":34.8,"endTime":35.05,"instrument":1,"program":0,"isDrum":false},{"pitch":46,"velocity":110,"startTime":34.8,"endTime":35.05,"instrument":1,"program":0,"isDrum":false},{"pitch":33,"velocity":110,"startTime":35.1,"endTime":35.349999999999994,"instrument":1,"program":0,"isDrum":false},{"pitch":45,"velocity":110,"startTime":35.1,"endTime":35.349999999999994,"instrument":1,"program":0,"isDrum":false},{"pitch":33,"velocity":110,"startTime":35.4,"endTime":35.546875,"instrument":1,"program":0,"isDrum":false},{"pitch":45,"velocity":110,"startTime":35.4,"endTime":35.546875,"instrument":1,"program":0,"isDrum":false},{"pitch":33,"velocity":110,"startTime":35.55,"endTime":35.8,"instrument":1,"program":0,"isDrum":false},{"pitch":45,"velocity":110,"startTime":35.55,"endTime":35.8,"instrument":1,"program":0,"isDrum":false},{"pitch":33,"velocity":110,"startTime":35.85,"endTime":35.996874999999996,"instrument":1,"program":0,"isDrum":false},{"pitch":45,"velocity":110,"startTime":35.85,"endTime":35.996874999999996,"instrument":1,"program":0,"isDrum":false},{"pitch":33,"velocity":110,"startTime":36,"endTime":36.25,"instrument":1,"program":0,"isDrum":false},{"pitch":45,"velocity":110,"startTime":36,"endTime":36.25,"instrument":1,"program":0,"isDrum":false},{"pitch":33,"velocity":110,"startTime":36.3,"endTime":36.446875,"instrument":1,"program":0,"isDrum":false},{"pitch":45,"velocity":110,"startTime":36.3,"endTime":36.446875,"instrument":1,"program":0,"isDrum":false},{"pitch":33,"velocity":110,"startTime":36.449999999999996,"endTime":36.699999999999996,"instrument":1,"program":0,"isDrum":false},{"pitch":45,"velocity":110,"startTime":36.449999999999996,"endTime":36.699999999999996,"instrument":1,"program":0,"isDrum":false},{"pitch":33,"velocity":110,"startTime":36.75,"endTime":36.896874999999994,"instrument":1,"program":0,"isDrum":false},{"pitch":45,"velocity":110,"startTime":36.75,"endTime":36.896874999999994,"instrument":1,"program":0,"isDrum":false},{"pitch":31,"velocity":110,"startTime":36.9,"endTime":37.15,"instrument":1,"program":0,"isDrum":false},{"pitch":43,"velocity":110,"startTime":36.9,"endTime":37.15,"instrument":1,"program":0,"isDrum":false},{"pitch":31,"velocity":110,"startTime":37.199999999999996,"endTime":37.346875,"instrument":1,"program":0,"isDrum":false},{"pitch":43,"velocity":110,"startTime":37.199999999999996,"endTime":37.346875,"instrument":1,"program":0,"isDrum":false},{"pitch":31,"velocity":110,"startTime":37.35,"endTime":37.599999999999994,"instrument":1,"program":0,"isDrum":false},{"pitch":43,"velocity":110,"startTime":37.35,"endTime":37.599999999999994,"instrument":1,"program":0,"isDrum":false},{"pitch":31,"velocity":110,"startTime":37.65,"endTime":37.796875,"instrument":1,"program":0,"isDrum":false},{"pitch":43,"velocity":110,"startTime":37.65,"endTime":37.796875,"instrument":1,"program":0,"isDrum":false},{"pitch":31,"velocity":110,"startTime":37.8,"endTime":38.05,"instrument":1,"program":0,"isDrum":false},{"pitch":43,"velocity":110,"startTime":37.8,"endTime":38.05,"instrument":1,"program":0,"isDrum":false},{"pitch":31,"velocity":110,"startTime":38.1,"endTime":38.246874999999996,"instrument":1,"program":0,"isDrum":false},{"pitch":43,"velocity":110,"startTime":38.1,"endTime":38.246874999999996,"instrument":1,"program":0,"isDrum":false},{"pitch":31,"velocity":110,"startTime":38.25,"endTime":38.5,"instrument":1,"program":0,"isDrum":false},{"pitch":43,"velocity":110,"startTime":38.25,"endTime":38.5,"instrument":1,"program":0,"isDrum":false},{"pitch":31,"velocity":110,"startTime":38.55,"endTime":38.696875,"instrument":1,"program":0,"isDrum":false},{"pitch":43,"velocity":110,"startTime":38.55,"endTime":38.696875,"instrument":1,"program":0,"isDrum":false},{"pitch":33,"velocity":110,"startTime":38.699999999999996,"endTime":38.95,"instrument":1,"program":0,"isDrum":false},{"pitch":45,"velocity":110,"startTime":38.699999999999996,"endTime":38.95,"instrument":1,"program":0,"isDrum":false},{"pitch":33,"velocity":110,"startTime":39,"endTime":39.146875,"instrument":1,"program":0,"isDrum":false},{"pitch":45,"velocity":110,"startTime":39,"endTime":39.146875,"instrument":1,"program":0,"isDrum":false},{"pitch":33,"velocity":110,"startTime":39.15,"endTime":39.4,"instrument":1,"program":0,"isDrum":false},{"pitch":45,"velocity":110,"startTime":39.15,"endTime":39.4,"instrument":1,"program":0,"isDrum":false},{"pitch":33,"velocity":110,"startTime":39.449999999999996,"endTime":39.596875000000004,"instrument":1,"program":0,"isDrum":false},{"pitch":45,"velocity":110,"startTime":39.449999999999996,"endTime":39.596875000000004,"instrument":1,"program":0,"isDrum":false},{"pitch":33,"velocity":110,"startTime":39.6,"endTime":39.85,"instrument":1,"program":0,"isDrum":false},{"pitch":45,"velocity":110,"startTime":39.6,"endTime":39.85,"instrument":1,"program":0,"isDrum":false},{"pitch":33,"velocity":110,"startTime":39.9,"endTime":40.046875,"instrument":1,"program":0,"isDrum":false},{"pitch":45,"velocity":110,"startTime":39.9,"endTime":40.046875,"instrument":1,"program":0,"isDrum":false},{"pitch":33,"velocity":110,"startTime":40.05,"endTime":40.300000000000004,"instrument":1,"program":0,"isDrum":false},{"pitch":45,"velocity":110,"startTime":40.05,"endTime":40.300000000000004,"instrument":1,"program":0,"isDrum":false},{"pitch":33,"velocity":110,"startTime":40.35,"endTime":40.496875,"instrument":1,"program":0,"isDrum":false},{"pitch":45,"velocity":110,"startTime":40.35,"endTime":40.496875,"instrument":1,"program":0,"isDrum":false},{"pitch":38,"velocity":110,"startTime":40.5,"endTime":40.75,"instrument":1,"program":0,"isDrum":false},{"pitch":50,"velocity":110,"startTime":40.5,"endTime":40.75,"instrument":1,"program":0,"isDrum":false},{"pitch":38,"velocity":110,"startTime":40.8,"endTime":40.946875,"instrument":1,"program":0,"isDrum":false},{"pitch":50,"velocity":110,"startTime":40.8,"endTime":40.946875,"instrument":1,"program":0,"isDrum":false},{"pitch":38,"velocity":110,"startTime":40.949999999999996,"endTime":41.2,"instrument":1,"program":0,"isDrum":false},{"pitch":50,"velocity":110,"startTime":40.949999999999996,"endTime":41.2,"instrument":1,"program":0,"isDrum":false},{"pitch":38,"velocity":110,"startTime":41.25,"endTime":41.396875,"instrument":1,"program":0,"isDrum":false},{"pitch":50,"velocity":110,"startTime":41.25,"endTime":41.396875,"instrument":1,"program":0,"isDrum":false},{"pitch":38,"velocity":110,"startTime":41.4,"endTime":41.65,"instrument":1,"program":0,"isDrum":false},{"pitch":50,"velocity":110,"startTime":41.4,"endTime":41.65,"instrument":1,"program":0,"isDrum":false},{"pitch":38,"velocity":110,"startTime":41.699999999999996,"endTime":41.846875000000004,"instrument":1,"program":0,"isDrum":false},{"pitch":50,"velocity":110,"startTime":41.699999999999996,"endTime":41.846875000000004,"instrument":1,"program":0,"isDrum":false},{"pitch":38,"velocity":110,"startTime":41.85,"endTime":41.996875,"instrument":1,"program":0,"isDrum":false},{"pitch":50,"velocity":110,"startTime":41.85,"endTime":41.996875,"instrument":1,"program":0,"isDrum":false},{"pitch":38,"velocity":110,"startTime":42,"endTime":42.146875,"instrument":1,"program":0,"isDrum":false},{"pitch":50,"velocity":110,"startTime":42,"endTime":42.146875,"instrument":1,"program":0,"isDrum":false},{"pitch":38,"velocity":110,"startTime":42.15,"endTime":42.296875,"instrument":1,"program":0,"isDrum":false},{"pitch":50,"velocity":110,"startTime":42.15,"endTime":42.296875,"instrument":1,"program":0,"isDrum":false},{"pitch":36,"velocity":110,"startTime":42.3,"endTime":42.550000000000004,"instrument":1,"program":0,"isDrum":false},{"pitch":48,"velocity":110,"startTime":42.3,"endTime":42.550000000000004,"instrument":1,"program":0,"isDrum":false},{"pitch":36,"velocity":110,"startTime":42.6,"endTime":42.746875,"instrument":1,"program":0,"isDrum":false},{"pitch":48,"velocity":110,"startTime":42.6,"endTime":42.746875,"instrument":1,"program":0,"isDrum":false},{"pitch":36,"velocity":110,"startTime":42.75,"endTime":43,"instrument":1,"program":0,"isDrum":false},{"pitch":48,"velocity":110,"startTime":42.75,"endTime":43,"instrument":1,"program":0,"isDrum":false},{"pitch":36,"velocity":110,"startTime":43.05,"endTime":43.196875,"instrument":1,"program":0,"isDrum":false},{"pitch":48,"velocity":110,"startTime":43.05,"endTime":43.196875,"instrument":1,"program":0,"isDrum":false},{"pitch":41,"velocity":110,"startTime":43.199999999999996,"endTime":43.45,"instrument":1,"program":0,"isDrum":false},{"pitch":53,"velocity":110,"startTime":43.199999999999996,"endTime":43.45,"instrument":1,"program":0,"isDrum":false},{"pitch":41,"velocity":110,"startTime":43.5,"endTime":43.646875,"instrument":1,"program":0,"isDrum":false},{"pitch":53,"velocity":110,"startTime":43.5,"endTime":43.646875,"instrument":1,"program":0,"isDrum":false},{"pitch":41,"velocity":110,"startTime":43.65,"endTime":43.796875,"instrument":1,"program":0,"isDrum":false},{"pitch":53,"velocity":110,"startTime":43.65,"endTime":43.796875,"instrument":1,"program":0,"isDrum":false},{"pitch":41,"velocity":110,"startTime":43.8,"endTime":43.946875,"instrument":1,"program":0,"isDrum":false},{"pitch":53,"velocity":110,"startTime":43.8,"endTime":43.946875,"instrument":1,"program":0,"isDrum":false},{"pitch":41,"velocity":110,"startTime":43.949999999999996,"endTime":44.096875000000004,"instrument":1,"program":0,"isDrum":false},{"pitch":53,"velocity":110,"startTime":43.949999999999996,"endTime":44.096875000000004,"instrument":1,"program":0,"isDrum":false},{"pitch":38,"velocity":110,"startTime":44.1,"endTime":44.35,"instrument":1,"program":0,"isDrum":false},{"pitch":50,"velocity":110,"startTime":44.1,"endTime":44.35,"instrument":1,"program":0,"isDrum":false},{"pitch":38,"velocity":110,"startTime":44.4,"endTime":44.546875,"instrument":1,"program":0,"isDrum":false},{"pitch":50,"velocity":110,"startTime":44.4,"endTime":44.546875,"instrument":1,"program":0,"isDrum":false},{"pitch":38,"velocity":110,"startTime":44.55,"endTime":44.800000000000004,"instrument":1,"program":0,"isDrum":false},{"pitch":50,"velocity":110,"startTime":44.55,"endTime":44.800000000000004,"instrument":1,"program":0,"isDrum":false},{"pitch":38,"velocity":110,"startTime":44.85,"endTime":44.996875,"instrument":1,"program":0,"isDrum":false},{"pitch":50,"velocity":110,"startTime":44.85,"endTime":44.996875,"instrument":1,"program":0,"isDrum":false},{"pitch":38,"velocity":110,"startTime":45,"endTime":45.25,"instrument":1,"program":0,"isDrum":false},{"pitch":50,"velocity":110,"startTime":45,"endTime":45.25,"instrument":1,"program":0,"isDrum":false},{"pitch":38,"velocity":110,"startTime":45.3,"endTime":45.446875,"instrument":1,"program":0,"isDrum":false},{"pitch":50,"velocity":110,"startTime":45.3,"endTime":45.446875,"instrument":1,"program":0,"isDrum":false},{"pitch":38,"velocity":110,"startTime":45.449999999999996,"endTime":45.596875000000004,"instrument":1,"program":0,"isDrum":false},{"pitch":50,"velocity":110,"startTime":45.449999999999996,"endTime":45.596875000000004,"instrument":1,"program":0,"isDrum":false},{"pitch":38,"velocity":110,"startTime":45.6,"endTime":45.746875,"instrument":1,"program":0,"isDrum":false},{"pitch":50,"velocity":110,"startTime":45.6,"endTime":45.746875,"instrument":1,"program":0,"isDrum":false},{"pitch":38,"velocity":110,"startTime":45.75,"endTime":45.896875,"instrument":1,"program":0,"isDrum":false},{"pitch":50,"velocity":110,"startTime":45.75,"endTime":45.896875,"instrument":1,"program":0,"isDrum":false},{"pitch":33,"velocity":110,"startTime":45.9,"endTime":46.15,"instrument":1,"program":0,"isDrum":false},{"pitch":45,"velocity":110,"startTime":45.9,"endTime":46.15,"instrument":1,"program":0,"isDrum":false},{"pitch":33,"velocity":110,"startTime":46.199999999999996,"endTime":46.346875000000004,"instrument":1,"program":0,"isDrum":false},{"pitch":45,"velocity":110,"startTime":46.199999999999996,"endTime":46.346875000000004,"instrument":1,"program":0,"isDrum":false},{"pitch":33,"velocity":110,"startTime":46.35,"endTime":46.6,"instrument":1,"program":0,"isDrum":false},{"pitch":45,"velocity":110,"startTime":46.35,"endTime":46.6,"instrument":1,"program":0,"isDrum":false},{"pitch":33,"velocity":110,"startTime":46.65,"endTime":46.796875,"instrument":1,"program":0,"isDrum":false},{"pitch":45,"velocity":110,"startTime":46.65,"endTime":46.796875,"instrument":1,"program":0,"isDrum":false},{"pitch":38,"velocity":110,"startTime":46.8,"endTime":47.050000000000004,"instrument":1,"program":0,"isDrum":false},{"pitch":50,"velocity":110,"startTime":46.8,"endTime":47.050000000000004,"instrument":1,"program":0,"isDrum":false},{"pitch":38,"velocity":110,"startTime":47.1,"endTime":47.246875,"instrument":1,"program":0,"isDrum":false},{"pitch":50,"velocity":110,"startTime":47.1,"endTime":47.246875,"instrument":1,"program":0,"isDrum":false},{"pitch":38,"velocity":110,"startTime":47.25,"endTime":47.5,"instrument":1,"program":0,"isDrum":false},{"pitch":50,"velocity":110,"startTime":47.25,"endTime":47.5,"instrument":1,"program":0,"isDrum":false},{"pitch":38,"velocity":110,"startTime":47.55,"endTime":47.696875,"instrument":1,"program":0,"isDrum":false},{"pitch":50,"velocity":110,"startTime":47.55,"endTime":47.696875,"instrument":1,"program":0,"isDrum":false},{"pitch":38,"velocity":110,"startTime":47.699999999999996,"endTime":47.95,"instrument":1,"program":0,"isDrum":false},{"pitch":50,"velocity":110,"startTime":47.699999999999996,"endTime":47.95,"instrument":1,"program":0,"isDrum":false},{"pitch":38,"velocity":110,"startTime":48,"endTime":48.146875,"instrument":1,"program":0,"isDrum":false},{"pitch":50,"velocity":110,"startTime":48,"endTime":48.146875,"instrument":1,"program":0,"isDrum":false},{"pitch":38,"velocity":110,"startTime":48.15,"endTime":48.4,"instrument":1,"program":0,"isDrum":false},{"pitch":50,"velocity":110,"startTime":48.15,"endTime":48.4,"instrument":1,"program":0,"isDrum":false},{"pitch":38,"velocity":110,"startTime":48.449999999999996,"endTime":48.596875000000004,"instrument":1,"program":0,"isDrum":false},{"pitch":50,"velocity":110,"startTime":48.449999999999996,"endTime":48.596875000000004,"instrument":1,"program":0,"isDrum":false},{"pitch":36,"velocity":110,"startTime":48.6,"endTime":48.85,"instrument":1,"program":0,"isDrum":false},{"pitch":48,"velocity":110,"startTime":48.6,"endTime":48.85,"instrument":1,"program":0,"isDrum":false},{"pitch":36,"velocity":110,"startTime":48.9,"endTime":49.046875,"instrument":1,"program":0,"isDrum":false},{"pitch":48,"velocity":110,"startTime":48.9,"endTime":49.046875,"instrument":1,"program":0,"isDrum":false},{"pitch":36,"velocity":110,"startTime":49.05,"endTime":49.196875,"instrument":1,"program":0,"isDrum":false},{"pitch":48,"velocity":110,"startTime":49.05,"endTime":49.196875,"instrument":1,"program":0,"isDrum":false},{"pitch":36,"velocity":110,"startTime":49.199999999999996,"endTime":49.346875000000004,"instrument":1,"program":0,"isDrum":false},{"pitch":48,"velocity":110,"startTime":49.199999999999996,"endTime":49.346875000000004,"instrument":1,"program":0,"isDrum":false},{"pitch":36,"velocity":110,"startTime":49.35,"endTime":49.496875,"instrument":1,"program":0,"isDrum":false},{"pitch":48,"velocity":110,"startTime":49.35,"endTime":49.496875,"instrument":1,"program":0,"isDrum":false},{"pitch":41,"velocity":110,"startTime":49.5,"endTime":49.75,"instrument":1,"program":0,"isDrum":false},{"pitch":53,"velocity":110,"startTime":49.5,"endTime":49.75,"instrument":1,"program":0,"isDrum":false},{"pitch":41,"velocity":110,"startTime":49.8,"endTime":49.946875,"instrument":1,"program":0,"isDrum":false},{"pitch":53,"velocity":110,"startTime":49.8,"endTime":49.946875,"instrument":1,"program":0,"isDrum":false},{"pitch":41,"velocity":110,"startTime":49.949999999999996,"endTime":50.096875000000004,"instrument":1,"program":0,"isDrum":false},{"pitch":53,"velocity":110,"startTime":49.949999999999996,"endTime":50.096875000000004,"instrument":1,"program":0,"isDrum":false},{"pitch":41,"velocity":110,"startTime":50.1,"endTime":50.246875,"instrument":1,"program":0,"isDrum":false},{"pitch":53,"velocity":110,"startTime":50.1,"endTime":50.246875,"instrument":1,"program":0,"isDrum":false},{"pitch":41,"velocity":110,"startTime":50.25,"endTime":50.396875,"instrument":1,"program":0,"isDrum":false},{"pitch":53,"velocity":110,"startTime":50.25,"endTime":50.396875,"instrument":1,"program":0,"isDrum":false},{"pitch":36,"velocity":110,"startTime":50.4,"endTime":50.65,"instrument":1,"program":0,"isDrum":false},{"pitch":48,"velocity":110,"startTime":50.4,"endTime":50.65,"instrument":1,"program":0,"isDrum":false},{"pitch":36,"velocity":110,"startTime":50.699999999999996,"endTime":50.846875000000004,"instrument":1,"program":0,"isDrum":false},{"pitch":48,"velocity":110,"startTime":50.699999999999996,"endTime":50.846875000000004,"instrument":1,"program":0,"isDrum":false},{"pitch":36,"velocity":110,"startTime":50.85,"endTime":50.996875,"instrument":1,"program":0,"isDrum":false},{"pitch":48,"velocity":110,"startTime":50.85,"endTime":50.996875,"instrument":1,"program":0,"isDrum":false},{"pitch":36,"velocity":110,"startTime":51,"endTime":51.146875,"instrument":1,"program":0,"isDrum":false},{"pitch":48,"velocity":110,"startTime":51,"endTime":51.146875,"instrument":1,"program":0,"isDrum":false},{"pitch":36,"velocity":110,"startTime":51.15,"endTime":51.296875,"instrument":1,"program":0,"isDrum":false},{"pitch":48,"velocity":110,"startTime":51.15,"endTime":51.296875,"instrument":1,"program":0,"isDrum":false},{"pitch":41,"velocity":110,"startTime":51.3,"endTime":51.550000000000004,"instrument":1,"program":0,"isDrum":false},{"pitch":53,"velocity":110,"startTime":51.3,"endTime":51.550000000000004,"instrument":1,"program":0,"isDrum":false},{"pitch":41,"velocity":110,"startTime":51.6,"endTime":51.746875,"instrument":1,"program":0,"isDrum":false},{"pitch":53,"velocity":110,"startTime":51.6,"endTime":51.746875,"instrument":1,"program":0,"isDrum":false},{"pitch":41,"velocity":110,"startTime":51.75,"endTime":51.896875,"instrument":1,"program":0,"isDrum":false},{"pitch":53,"velocity":110,"startTime":51.75,"endTime":51.896875,"instrument":1,"program":0,"isDrum":false},{"pitch":41,"velocity":110,"startTime":51.9,"endTime":52.046875,"instrument":1,"program":0,"isDrum":false},{"pitch":53,"velocity":110,"startTime":51.9,"endTime":52.046875,"instrument":1,"program":0,"isDrum":false},{"pitch":41,"velocity":110,"startTime":52.05,"endTime":52.196875,"instrument":1,"program":0,"isDrum":false},{"pitch":53,"velocity":110,"startTime":52.05,"endTime":52.196875,"instrument":1,"program":0,"isDrum":false},{"pitch":33,"velocity":110,"startTime":52.199999999999996,"endTime":52.45,"instrument":1,"program":0,"isDrum":false},{"pitch":45,"velocity":110,"startTime":52.199999999999996,"endTime":52.45,"instrument":1,"program":0,"isDrum":false},{"pitch":33,"velocity":110,"startTime":52.5,"endTime":52.646875,"instrument":1,"program":0,"isDrum":false},{"pitch":45,"velocity":110,"startTime":52.5,"endTime":52.646875,"instrument":1,"program":0,"isDrum":false},{"pitch":33,"velocity":110,"startTime":52.65,"endTime":52.796875,"instrument":1,"program":0,"isDrum":false},{"pitch":45,"velocity":110,"startTime":52.65,"endTime":52.796875,"instrument":1,"program":0,"isDrum":false},{"pitch":33,"velocity":110,"startTime":52.8,"endTime":52.946875,"instrument":1,"program":0,"isDrum":false},{"pitch":45,"velocity":110,"startTime":52.8,"endTime":52.946875,"instrument":1,"program":0,"isDrum":false},{"pitch":33,"velocity":110,"startTime":52.949999999999996,"endTime":53.096875000000004,"instrument":1,"program":0,"isDrum":false},{"pitch":45,"velocity":110,"startTime":52.949999999999996,"endTime":53.096875000000004,"instrument":1,"program":0,"isDrum":false},{"pitch":38,"velocity":110,"startTime":53.1,"endTime":53.35,"instrument":1,"program":0,"isDrum":false},{"pitch":50,"velocity":110,"startTime":53.1,"endTime":53.35,"instrument":1,"program":0,"isDrum":false},{"pitch":38,"velocity":110,"startTime":53.4,"endTime":53.546875,"instrument":1,"program":0,"isDrum":false},{"pitch":50,"velocity":110,"startTime":53.4,"endTime":53.546875,"instrument":1,"program":0,"isDrum":false},{"pitch":38,"velocity":110,"startTime":53.55,"endTime":53.800000000000004,"instrument":1,"program":0,"isDrum":false},{"pitch":50,"velocity":110,"startTime":53.55,"endTime":53.800000000000004,"instrument":1,"program":0,"isDrum":false},{"pitch":38,"velocity":110,"startTime":53.85,"endTime":53.996875,"instrument":1,"program":0,"isDrum":false},{"pitch":50,"velocity":110,"startTime":53.85,"endTime":53.996875,"instrument":1,"program":0,"isDrum":false},{"pitch":38,"velocity":110,"startTime":54,"endTime":54.25,"instrument":1,"program":0,"isDrum":false},{"pitch":50,"velocity":110,"startTime":54,"endTime":54.25,"instrument":1,"program":0,"isDrum":false},{"pitch":38,"velocity":110,"startTime":54.3,"endTime":54.446875,"instrument":1,"program":0,"isDrum":false},{"pitch":50,"velocity":110,"startTime":54.3,"endTime":54.446875,"instrument":1,"program":0,"isDrum":false},{"pitch":38,"velocity":110,"startTime":54.449999999999996,"endTime":54.596875000000004,"instrument":1,"program":0,"isDrum":false},{"pitch":50,"velocity":110,"startTime":54.449999999999996,"endTime":54.596875000000004,"instrument":1,"program":0,"isDrum":false},{"pitch":38,"velocity":110,"startTime":54.6,"endTime":54.746875,"instrument":1,"program":0,"isDrum":false},{"pitch":50,"velocity":110,"startTime":54.6,"endTime":54.746875,"instrument":1,"program":0,"isDrum":false},{"pitch":38,"velocity":110,"startTime":54.75,"endTime":54.896875,"instrument":1,"program":0,"isDrum":false},{"pitch":50,"velocity":110,"startTime":54.75,"endTime":54.896875,"instrument":1,"program":0,"isDrum":false},{"pitch":38,"velocity":110,"startTime":54.9,"endTime":55.15,"instrument":1,"program":0,"isDrum":false},{"pitch":50,"velocity":110,"startTime":54.9,"endTime":55.15,"instrument":1,"program":0,"isDrum":false},{"pitch":38,"velocity":110,"startTime":55.199999999999996,"endTime":55.346875000000004,"instrument":1,"program":0,"isDrum":false},{"pitch":50,"velocity":110,"startTime":55.199999999999996,"endTime":55.346875000000004,"instrument":1,"program":0,"isDrum":false},{"pitch":38,"velocity":110,"startTime":55.35,"endTime":55.496875,"instrument":1,"program":0,"isDrum":false},{"pitch":50,"velocity":110,"startTime":55.35,"endTime":55.496875,"instrument":1,"program":0,"isDrum":false},{"pitch":38,"velocity":110,"startTime":55.5,"endTime":55.646875,"instrument":1,"program":0,"isDrum":false},{"pitch":50,"velocity":110,"startTime":55.5,"endTime":55.646875,"instrument":1,"program":0,"isDrum":false},{"pitch":38,"velocity":110,"startTime":55.65,"endTime":55.796875,"instrument":1,"program":0,"isDrum":false},{"pitch":50,"velocity":110,"startTime":55.65,"endTime":55.796875,"instrument":1,"program":0,"isDrum":false},{"pitch":36,"velocity":110,"startTime":55.8,"endTime":56.050000000000004,"instrument":1,"program":0,"isDrum":false},{"pitch":48,"velocity":110,"startTime":55.8,"endTime":56.050000000000004,"instrument":1,"program":0,"isDrum":false},{"pitch":36,"velocity":110,"startTime":56.1,"endTime":56.246875,"instrument":1,"program":0,"isDrum":false},{"pitch":48,"velocity":110,"startTime":56.1,"endTime":56.246875,"instrument":1,"program":0,"isDrum":false},{"pitch":36,"velocity":110,"startTime":56.25,"endTime":56.396875,"instrument":1,"program":0,"isDrum":false},{"pitch":48,"velocity":110,"startTime":56.25,"endTime":56.396875,"instrument":1,"program":0,"isDrum":false},{"pitch":36,"velocity":110,"startTime":56.4,"endTime":56.546875,"instrument":1,"program":0,"isDrum":false},{"pitch":48,"velocity":110,"startTime":56.4,"endTime":56.546875,"instrument":1,"program":0,"isDrum":false},{"pitch":36,"velocity":110,"startTime":56.55,"endTime":56.696875,"instrument":1,"program":0,"isDrum":false},{"pitch":48,"velocity":110,"startTime":56.55,"endTime":56.696875,"instrument":1,"program":0,"isDrum":false},{"pitch":41,"velocity":110,"startTime":56.699999999999996,"endTime":56.95,"instrument":1,"program":0,"isDrum":false},{"pitch":53,"velocity":110,"startTime":56.699999999999996,"endTime":56.95,"instrument":1,"program":0,"isDrum":false},{"pitch":41,"velocity":110,"startTime":57,"endTime":57.146875,"instrument":1,"program":0,"isDrum":false},{"pitch":53,"velocity":110,"startTime":57,"endTime":57.146875,"instrument":1,"program":0,"isDrum":false},{"pitch":41,"velocity":110,"startTime":57.15,"endTime":57.296875,"instrument":1,"program":0,"isDrum":false},{"pitch":53,"velocity":110,"startTime":57.15,"endTime":57.296875,"instrument":1,"program":0,"isDrum":false},{"pitch":41,"velocity":110,"startTime":57.3,"endTime":57.446875,"instrument":1,"program":0,"isDrum":false},{"pitch":53,"velocity":110,"startTime":57.3,"endTime":57.446875,"instrument":1,"program":0,"isDrum":false},{"pitch":41,"velocity":110,"startTime":57.449999999999996,"endTime":57.596875000000004,"instrument":1,"program":0,"isDrum":false},{"pitch":53,"velocity":110,"startTime":57.449999999999996,"endTime":57.596875000000004,"instrument":1,"program":0,"isDrum":false},{"pitch":34,"velocity":110,"startTime":57.599999999999994,"endTime":57.85,"instrument":1,"program":0,"isDrum":false},{"pitch":46,"velocity":110,"startTime":57.599999999999994,"endTime":57.85,"instrument":1,"program":0,"isDrum":false},{"pitch":34,"velocity":110,"startTime":57.9,"endTime":58.046875,"instrument":1,"program":0,"isDrum":false},{"pitch":46,"velocity":110,"startTime":57.9,"endTime":58.046875,"instrument":1,"program":0,"isDrum":false},{"pitch":34,"velocity":110,"startTime":58.05,"endTime":58.196875,"instrument":1,"program":0,"isDrum":false},{"pitch":46,"velocity":110,"startTime":58.05,"endTime":58.196875,"instrument":1,"program":0,"isDrum":false},{"pitch":34,"velocity":110,"startTime":58.199999999999996,"endTime":58.346875,"instrument":1,"program":0,"isDrum":false},{"pitch":46,"velocity":110,"startTime":58.199999999999996,"endTime":58.346875,"instrument":1,"program":0,"isDrum":false},{"pitch":34,"velocity":110,"startTime":58.349999999999994,"endTime":58.496875,"instrument":1,"program":0,"isDrum":false},{"pitch":46,"velocity":110,"startTime":58.349999999999994,"endTime":58.496875,"instrument":1,"program":0,"isDrum":false},{"pitch":38,"velocity":110,"startTime":58.5,"endTime":58.75,"instrument":1,"program":0,"isDrum":false},{"pitch":50,"velocity":110,"startTime":58.5,"endTime":58.75,"instrument":1,"program":0,"isDrum":false},{"pitch":38,"velocity":110,"startTime":58.8,"endTime":58.946875,"instrument":1,"program":0,"isDrum":false},{"pitch":50,"velocity":110,"startTime":58.8,"endTime":58.946875,"instrument":1,"program":0,"isDrum":false},{"pitch":38,"velocity":110,"startTime":58.949999999999996,"endTime":59.096875,"instrument":1,"program":0,"isDrum":false},{"pitch":50,"velocity":110,"startTime":58.949999999999996,"endTime":59.096875,"instrument":1,"program":0,"isDrum":false},{"pitch":38,"velocity":110,"startTime":59.099999999999994,"endTime":59.246875,"instrument":1,"program":0,"isDrum":false},{"pitch":50,"velocity":110,"startTime":59.099999999999994,"endTime":59.246875,"instrument":1,"program":0,"isDrum":false},{"pitch":38,"velocity":110,"startTime":59.25,"endTime":59.396875,"instrument":1,"program":0,"isDrum":false},{"pitch":50,"velocity":110,"startTime":59.25,"endTime":59.396875,"instrument":1,"program":0,"isDrum":false},{"pitch":31,"velocity":110,"startTime":59.4,"endTime":59.65,"instrument":1,"program":0,"isDrum":false},{"pitch":43,"velocity":110,"startTime":59.4,"endTime":59.65,"instrument":1,"program":0,"isDrum":false},{"pitch":31,"velocity":110,"startTime":59.699999999999996,"endTime":59.846875,"instrument":1,"program":0,"isDrum":false},{"pitch":43,"velocity":110,"startTime":59.699999999999996,"endTime":59.846875,"instrument":1,"program":0,"isDrum":false},{"pitch":31,"velocity":110,"startTime":59.849999999999994,"endTime":59.996875,"instrument":1,"program":0,"isDrum":false},{"pitch":43,"velocity":110,"startTime":59.849999999999994,"endTime":59.996875,"instrument":1,"program":0,"isDrum":false},{"pitch":31,"velocity":110,"startTime":60,"endTime":60.146875,"instrument":1,"program":0,"isDrum":false},{"pitch":43,"velocity":110,"startTime":60,"endTime":60.146875,"instrument":1,"program":0,"isDrum":false},{"pitch":31,"velocity":110,"startTime":60.15,"endTime":60.296875,"instrument":1,"program":0,"isDrum":false},{"pitch":43,"velocity":110,"startTime":60.15,"endTime":60.296875,"instrument":1,"program":0,"isDrum":false},{"pitch":33,"velocity":110,"startTime":60.3,"endTime":60.55,"instrument":1,"program":0,"isDrum":false},{"pitch":45,"velocity":110,"startTime":60.3,"endTime":60.55,"instrument":1,"program":0,"isDrum":false},{"pitch":33,"velocity":110,"startTime":60.599999999999994,"endTime":60.746875,"instrument":1,"program":0,"isDrum":false},{"pitch":45,"velocity":110,"startTime":60.599999999999994,"endTime":60.746875,"instrument":1,"program":0,"isDrum":false},{"pitch":33,"velocity":110,"startTime":60.75,"endTime":60.896875,"instrument":1,"program":0,"isDrum":false},{"pitch":45,"velocity":110,"startTime":60.75,"endTime":60.896875,"instrument":1,"program":0,"isDrum":false},{"pitch":33,"velocity":110,"startTime":60.9,"endTime":61.046875,"instrument":1,"program":0,"isDrum":false},{"pitch":45,"velocity":110,"startTime":60.9,"endTime":61.046875,"instrument":1,"program":0,"isDrum":false},{"pitch":33,"velocity":110,"startTime":61.05,"endTime":61.196875,"instrument":1,"program":0,"isDrum":false},{"pitch":45,"velocity":110,"startTime":61.05,"endTime":61.196875,"instrument":1,"program":0,"isDrum":false},{"pitch":33,"velocity":110,"startTime":61.199999999999996,"endTime":61.45,"instrument":1,"program":0,"isDrum":false},{"pitch":45,"velocity":110,"startTime":61.199999999999996,"endTime":61.45,"instrument":1,"program":0,"isDrum":false},{"pitch":33,"velocity":110,"startTime":61.5,"endTime":61.646875,"instrument":1,"program":0,"isDrum":false},{"pitch":45,"velocity":110,"startTime":61.5,"endTime":61.646875,"instrument":1,"program":0,"isDrum":false},{"pitch":33,"velocity":110,"startTime":61.65,"endTime":61.796875,"instrument":1,"program":0,"isDrum":false},{"pitch":45,"velocity":110,"startTime":61.65,"endTime":61.796875,"instrument":1,"program":0,"isDrum":false},{"pitch":33,"velocity":110,"startTime":61.8,"endTime":61.946875,"instrument":1,"program":0,"isDrum":false},{"pitch":45,"velocity":110,"startTime":61.8,"endTime":61.946875,"instrument":1,"program":0,"isDrum":false},{"pitch":33,"velocity":110,"startTime":61.949999999999996,"endTime":62.096875,"instrument":1,"program":0,"isDrum":false},{"pitch":45,"velocity":110,"startTime":61.949999999999996,"endTime":62.096875,"instrument":1,"program":0,"isDrum":false},{"pitch":38,"velocity":110,"startTime":62.099999999999994,"endTime":62.35,"instrument":1,"program":0,"isDrum":false},{"pitch":50,"velocity":110,"startTime":62.099999999999994,"endTime":62.35,"instrument":1,"program":0,"isDrum":false},{"pitch":38,"velocity":110,"startTime":62.4,"endTime":62.546875,"instrument":1,"program":0,"isDrum":false},{"pitch":50,"velocity":110,"startTime":62.4,"endTime":62.546875,"instrument":1,"program":0,"isDrum":false},{"pitch":38,"velocity":110,"startTime":62.55,"endTime":62.696875,"instrument":1,"program":0,"isDrum":false},{"pitch":50,"velocity":110,"startTime":62.55,"endTime":62.696875,"instrument":1,"program":0,"isDrum":false},{"pitch":38,"velocity":110,"startTime":62.699999999999996,"endTime":62.846875,"instrument":1,"program":0,"isDrum":false},{"pitch":50,"velocity":110,"startTime":62.699999999999996,"endTime":62.846875,"instrument":1,"program":0,"isDrum":false},{"pitch":38,"velocity":110,"startTime":62.849999999999994,"endTime":62.996875,"instrument":1,"program":0,"isDrum":false},{"pitch":50,"velocity":110,"startTime":62.849999999999994,"endTime":62.996875,"instrument":1,"program":0,"isDrum":false},{"pitch":31,"velocity":110,"startTime":63,"endTime":63.25,"instrument":1,"program":0,"isDrum":false},{"pitch":43,"velocity":110,"startTime":63,"endTime":63.25,"instrument":1,"program":0,"isDrum":false},{"pitch":31,"velocity":110,"startTime":63.3,"endTime":63.446875,"instrument":1,"program":0,"isDrum":false},{"pitch":43,"velocity":110,"startTime":63.3,"endTime":63.446875,"instrument":1,"program":0,"isDrum":false},{"pitch":31,"velocity":110,"startTime":63.449999999999996,"endTime":63.596875,"instrument":1,"program":0,"isDrum":false},{"pitch":43,"velocity":110,"startTime":63.449999999999996,"endTime":63.596875,"instrument":1,"program":0,"isDrum":false},{"pitch":31,"velocity":110,"startTime":63.599999999999994,"endTime":63.746875,"instrument":1,"program":0,"isDrum":false},{"pitch":43,"velocity":110,"startTime":63.599999999999994,"endTime":63.746875,"instrument":1,"program":0,"isDrum":false},{"pitch":31,"velocity":110,"startTime":63.75,"endTime":63.896875,"instrument":1,"program":0,"isDrum":false},{"pitch":43,"velocity":110,"startTime":63.75,"endTime":63.896875,"instrument":1,"program":0,"isDrum":false},{"pitch":41,"velocity":110,"startTime":63.9,"endTime":64.15,"instrument":1,"program":0,"isDrum":false},{"pitch":53,"velocity":110,"startTime":63.9,"endTime":64.15,"instrument":1,"program":0,"isDrum":false},{"pitch":41,"velocity":110,"startTime":64.2,"endTime":64.346875,"instrument":1,"program":0,"isDrum":false},{"pitch":53,"velocity":110,"startTime":64.2,"endTime":64.346875,"instrument":1,"program":0,"isDrum":false},{"pitch":41,"velocity":110,"startTime":64.35,"endTime":64.6,"instrument":1,"program":0,"isDrum":false},{"pitch":53,"velocity":110,"startTime":64.35,"endTime":64.6,"instrument":1,"program":0,"isDrum":false},{"pitch":41,"velocity":110,"startTime":64.64999999999999,"endTime":64.796875,"instrument":1,"program":0,"isDrum":false},{"pitch":53,"velocity":110,"startTime":64.64999999999999,"endTime":64.796875,"instrument":1,"program":0,"isDrum":false},{"pitch":36,"velocity":110,"startTime":64.8,"endTime":65.05,"instrument":1,"program":0,"isDrum":false},{"pitch":48,"velocity":110,"startTime":64.8,"endTime":65.05,"instrument":1,"program":0,"isDrum":false},{"pitch":36,"velocity":110,"startTime":65.1,"endTime":65.246875,"instrument":1,"program":0,"isDrum":false},{"pitch":48,"velocity":110,"startTime":65.1,"endTime":65.246875,"instrument":1,"program":0,"isDrum":false},{"pitch":36,"velocity":110,"startTime":65.25,"endTime":65.396875,"instrument":1,"program":0,"isDrum":false},{"pitch":48,"velocity":110,"startTime":65.25,"endTime":65.396875,"instrument":1,"program":0,"isDrum":false},{"pitch":36,"velocity":110,"startTime":65.39999999999999,"endTime":65.546875,"instrument":1,"program":0,"isDrum":false},{"pitch":48,"velocity":110,"startTime":65.39999999999999,"endTime":65.546875,"instrument":1,"program":0,"isDrum":false},{"pitch":36,"velocity":110,"startTime":65.55,"endTime":65.696875,"instrument":1,"program":0,"isDrum":false},{"pitch":48,"velocity":110,"startTime":65.55,"endTime":65.696875,"instrument":1,"program":0,"isDrum":false},{"pitch":31,"velocity":110,"startTime":65.7,"endTime":65.95,"instrument":1,"program":0,"isDrum":false},{"pitch":43,"velocity":110,"startTime":65.7,"endTime":65.95,"instrument":1,"program":0,"isDrum":false},{"pitch":31,"velocity":110,"startTime":66,"endTime":66.146875,"instrument":1,"program":0,"isDrum":false},{"pitch":43,"velocity":110,"startTime":66,"endTime":66.146875,"instrument":1,"program":0,"isDrum":false},{"pitch":31,"velocity":110,"startTime":66.14999999999999,"endTime":66.296875,"instrument":1,"program":0,"isDrum":false},{"pitch":43,"velocity":110,"startTime":66.14999999999999,"endTime":66.296875,"instrument":1,"program":0,"isDrum":false},{"pitch":31,"velocity":110,"startTime":66.3,"endTime":66.446875,"instrument":1,"program":0,"isDrum":false},{"pitch":43,"velocity":110,"startTime":66.3,"endTime":66.446875,"instrument":1,"program":0,"isDrum":false},{"pitch":31,"velocity":110,"startTime":66.45,"endTime":66.596875,"instrument":1,"program":0,"isDrum":false},{"pitch":43,"velocity":110,"startTime":66.45,"endTime":66.596875,"instrument":1,"program":0,"isDrum":false},{"pitch":33,"velocity":110,"startTime":66.6,"endTime":66.85,"instrument":1,"program":0,"isDrum":false},{"pitch":45,"velocity":110,"startTime":66.6,"endTime":66.85,"instrument":1,"program":0,"isDrum":false},{"pitch":33,"velocity":110,"startTime":66.89999999999999,"endTime":67.046875,"instrument":1,"program":0,"isDrum":false},{"pitch":45,"velocity":110,"startTime":66.89999999999999,"endTime":67.046875,"instrument":1,"program":0,"isDrum":false},{"pitch":33,"velocity":110,"startTime":67.05,"endTime":67.196875,"instrument":1,"program":0,"isDrum":false},{"pitch":45,"velocity":110,"startTime":67.05,"endTime":67.196875,"instrument":1,"program":0,"isDrum":false},{"pitch":33,"velocity":110,"startTime":67.2,"endTime":67.346875,"instrument":1,"program":0,"isDrum":false},{"pitch":45,"velocity":110,"startTime":67.2,"endTime":67.346875,"instrument":1,"program":0,"isDrum":false},{"pitch":33,"velocity":110,"startTime":67.35,"endTime":67.496875,"instrument":1,"program":0,"isDrum":false},{"pitch":45,"velocity":110,"startTime":67.35,"endTime":67.496875,"instrument":1,"program":0,"isDrum":false},{"pitch":33,"velocity":110,"startTime":67.5,"endTime":67.75,"instrument":1,"program":0,"isDrum":false},{"pitch":45,"velocity":110,"startTime":67.5,"endTime":67.75,"instrument":1,"program":0,"isDrum":false},{"pitch":33,"velocity":110,"startTime":67.8,"endTime":67.946875,"instrument":1,"program":0,"isDrum":false},{"pitch":45,"velocity":110,"startTime":67.8,"endTime":67.946875,"instrument":1,"program":0,"isDrum":false},{"pitch":33,"velocity":110,"startTime":67.95,"endTime":68.096875,"instrument":1,"program":0,"isDrum":false},{"pitch":45,"velocity":110,"startTime":67.95,"endTime":68.096875,"instrument":1,"program":0,"isDrum":false},{"pitch":33,"velocity":110,"startTime":68.1,"endTime":68.246875,"instrument":1,"program":0,"isDrum":false},{"pitch":45,"velocity":110,"startTime":68.1,"endTime":68.246875,"instrument":1,"program":0,"isDrum":false},{"pitch":33,"velocity":110,"startTime":68.25,"endTime":68.396875,"instrument":1,"program":0,"isDrum":false},{"pitch":45,"velocity":110,"startTime":68.25,"endTime":68.396875,"instrument":1,"program":0,"isDrum":false},{"pitch":38,"velocity":110,"startTime":68.39999999999999,"endTime":68.65,"instrument":1,"program":0,"isDrum":false},{"pitch":50,"velocity":110,"startTime":68.39999999999999,"endTime":68.65,"instrument":1,"program":0,"isDrum":false},{"pitch":38,"velocity":110,"startTime":68.7,"endTime":68.846875,"instrument":1,"program":0,"isDrum":false},{"pitch":50,"velocity":110,"startTime":68.7,"endTime":68.846875,"instrument":1,"program":0,"isDrum":false},{"pitch":38,"velocity":110,"startTime":68.85,"endTime":68.996875,"instrument":1,"program":0,"isDrum":false},{"pitch":50,"velocity":110,"startTime":68.85,"endTime":68.996875,"instrument":1,"program":0,"isDrum":false},{"pitch":38,"velocity":110,"startTime":69,"endTime":69.146875,"instrument":1,"program":0,"isDrum":false},{"pitch":50,"velocity":110,"startTime":69,"endTime":69.146875,"instrument":1,"program":0,"isDrum":false},{"pitch":38,"velocity":110,"startTime":69.14999999999999,"endTime":69.296875,"instrument":1,"program":0,"isDrum":false},{"pitch":50,"velocity":110,"startTime":69.14999999999999,"endTime":69.296875,"instrument":1,"program":0,"isDrum":false},{"pitch":38,"velocity":110,"startTime":69.3,"endTime":69.55,"instrument":1,"program":0,"isDrum":false},{"pitch":50,"velocity":110,"startTime":69.3,"endTime":69.55,"instrument":1,"program":0,"isDrum":false},{"pitch":38,"velocity":110,"startTime":69.6,"endTime":69.746875,"instrument":1,"program":0,"isDrum":false},{"pitch":50,"velocity":110,"startTime":69.6,"endTime":69.746875,"instrument":1,"program":0,"isDrum":false},{"pitch":38,"velocity":110,"startTime":69.75,"endTime":69.896875,"instrument":1,"program":0,"isDrum":false},{"pitch":50,"velocity":110,"startTime":69.75,"endTime":69.896875,"instrument":1,"program":0,"isDrum":false},{"pitch":38,"velocity":110,"startTime":69.89999999999999,"endTime":70.046875,"instrument":1,"program":0,"isDrum":false},{"pitch":50,"velocity":110,"startTime":69.89999999999999,"endTime":70.046875,"instrument":1,"program":0,"isDrum":false},{"pitch":38,"velocity":110,"startTime":70.05,"endTime":70.196875,"instrument":1,"program":0,"isDrum":false},{"pitch":50,"velocity":110,"startTime":70.05,"endTime":70.196875,"instrument":1,"program":0,"isDrum":false},{"pitch":34,"velocity":110,"startTime":70.2,"endTime":70.45,"instrument":1,"program":0,"isDrum":false},{"pitch":46,"velocity":110,"startTime":70.2,"endTime":70.45,"instrument":1,"program":0,"isDrum":false},{"pitch":34,"velocity":110,"startTime":70.5,"endTime":70.646875,"instrument":1,"program":0,"isDrum":false},{"pitch":46,"velocity":110,"startTime":70.5,"endTime":70.646875,"instrument":1,"program":0,"isDrum":false},{"pitch":34,"velocity":110,"startTime":70.64999999999999,"endTime":70.796875,"instrument":1,"program":0,"isDrum":false},{"pitch":46,"velocity":110,"startTime":70.64999999999999,"endTime":70.796875,"instrument":1,"program":0,"isDrum":false},{"pitch":34,"velocity":110,"startTime":70.8,"endTime":70.946875,"instrument":1,"program":0,"isDrum":false},{"pitch":46,"velocity":110,"startTime":70.8,"endTime":70.946875,"instrument":1,"program":0,"isDrum":false},{"pitch":34,"velocity":110,"startTime":70.95,"endTime":71.096875,"instrument":1,"program":0,"isDrum":false},{"pitch":46,"velocity":110,"startTime":70.95,"endTime":71.096875,"instrument":1,"program":0,"isDrum":false},{"pitch":41,"velocity":110,"startTime":71.1,"endTime":71.35,"instrument":1,"program":0,"isDrum":false},{"pitch":53,"velocity":110,"startTime":71.1,"endTime":71.35,"instrument":1,"program":0,"isDrum":false},{"pitch":41,"velocity":110,"startTime":71.39999999999999,"endTime":71.546875,"instrument":1,"program":0,"isDrum":false},{"pitch":53,"velocity":110,"startTime":71.39999999999999,"endTime":71.546875,"instrument":1,"program":0,"isDrum":false},{"pitch":41,"velocity":110,"startTime":71.55,"endTime":71.696875,"instrument":1,"program":0,"isDrum":false},{"pitch":53,"velocity":110,"startTime":71.55,"endTime":71.696875,"instrument":1,"program":0,"isDrum":false},{"pitch":41,"velocity":110,"startTime":71.7,"endTime":71.846875,"instrument":1,"program":0,"isDrum":false},{"pitch":53,"velocity":110,"startTime":71.7,"endTime":71.846875,"instrument":1,"program":0,"isDrum":false},{"pitch":41,"velocity":110,"startTime":71.85,"endTime":71.996875,"instrument":1,"program":0,"isDrum":false},{"pitch":53,"velocity":110,"startTime":71.85,"endTime":71.996875,"instrument":1,"program":0,"isDrum":false},{"pitch":36,"velocity":110,"startTime":72,"endTime":72.25,"instrument":1,"program":0,"isDrum":false},{"pitch":48,"velocity":110,"startTime":72,"endTime":72.25,"instrument":1,"program":0,"isDrum":false},{"pitch":36,"velocity":110,"startTime":72.3,"endTime":72.446875,"instrument":1,"program":0,"isDrum":false},{"pitch":48,"velocity":110,"startTime":72.3,"endTime":72.446875,"instrument":1,"program":0,"isDrum":false},{"pitch":36,"velocity":110,"startTime":72.45,"endTime":72.596875,"instrument":1,"program":0,"isDrum":false},{"pitch":48,"velocity":110,"startTime":72.45,"endTime":72.596875,"instrument":1,"program":0,"isDrum":false},{"pitch":36,"velocity":110,"startTime":72.6,"endTime":72.746875,"instrument":1,"program":0,"isDrum":false},{"pitch":48,"velocity":110,"startTime":72.6,"endTime":72.746875,"instrument":1,"program":0,"isDrum":false},{"pitch":36,"velocity":110,"startTime":72.75,"endTime":72.896875,"instrument":1,"program":0,"isDrum":false},{"pitch":48,"velocity":110,"startTime":72.75,"endTime":72.896875,"instrument":1,"program":0,"isDrum":false},{"pitch":31,"velocity":110,"startTime":72.89999999999999,"endTime":73.15,"instrument":1,"program":0,"isDrum":false},{"pitch":43,"velocity":110,"startTime":72.89999999999999,"endTime":73.15,"instrument":1,"program":0,"isDrum":false},{"pitch":31,"velocity":110,"startTime":73.2,"endTime":73.346875,"instrument":1,"program":0,"isDrum":false},{"pitch":43,"velocity":110,"startTime":73.2,"endTime":73.346875,"instrument":1,"program":0,"isDrum":false},{"pitch":31,"velocity":110,"startTime":73.35,"endTime":73.496875,"instrument":1,"program":0,"isDrum":false},{"pitch":43,"velocity":110,"startTime":73.35,"endTime":73.496875,"instrument":1,"program":0,"isDrum":false},{"pitch":31,"velocity":110,"startTime":73.5,"endTime":73.646875,"instrument":1,"program":0,"isDrum":false},{"pitch":43,"velocity":110,"startTime":73.5,"endTime":73.646875,"instrument":1,"program":0,"isDrum":false},{"pitch":31,"velocity":110,"startTime":73.64999999999999,"endTime":73.796875,"instrument":1,"program":0,"isDrum":false},{"pitch":43,"velocity":110,"startTime":73.64999999999999,"endTime":73.796875,"instrument":1,"program":0,"isDrum":false},{"pitch":33,"velocity":110,"startTime":73.8,"endTime":74.05,"instrument":1,"program":0,"isDrum":false},{"pitch":45,"velocity":110,"startTime":73.8,"endTime":74.05,"instrument":1,"program":0,"isDrum":false},{"pitch":33,"velocity":110,"startTime":74.1,"endTime":74.246875,"instrument":1,"program":0,"isDrum":false},{"pitch":45,"velocity":110,"startTime":74.1,"endTime":74.246875,"instrument":1,"program":0,"isDrum":false},{"pitch":33,"velocity":110,"startTime":74.25,"endTime":74.396875,"instrument":1,"program":0,"isDrum":false},{"pitch":45,"velocity":110,"startTime":74.25,"endTime":74.396875,"instrument":1,"program":0,"isDrum":false},{"pitch":33,"velocity":110,"startTime":74.39999999999999,"endTime":74.546875,"instrument":1,"program":0,"isDrum":false},{"pitch":45,"velocity":110,"startTime":74.39999999999999,"endTime":74.546875,"instrument":1,"program":0,"isDrum":false},{"pitch":33,"velocity":110,"startTime":74.55,"endTime":74.696875,"instrument":1,"program":0,"isDrum":false},{"pitch":45,"velocity":110,"startTime":74.55,"endTime":74.696875,"instrument":1,"program":0,"isDrum":false},{"pitch":33,"velocity":110,"startTime":74.7,"endTime":74.95,"instrument":1,"program":0,"isDrum":false},{"pitch":45,"velocity":110,"startTime":74.7,"endTime":74.95,"instrument":1,"program":0,"isDrum":false},{"pitch":33,"velocity":110,"startTime":75,"endTime":75.146875,"instrument":1,"program":0,"isDrum":false},{"pitch":45,"velocity":110,"startTime":75,"endTime":75.146875,"instrument":1,"program":0,"isDrum":false},{"pitch":33,"velocity":110,"startTime":75.14999999999999,"endTime":75.296875,"instrument":1,"program":0,"isDrum":false},{"pitch":45,"velocity":110,"startTime":75.14999999999999,"endTime":75.296875,"instrument":1,"program":0,"isDrum":false},{"pitch":33,"velocity":110,"startTime":75.3,"endTime":75.446875,"instrument":1,"program":0,"isDrum":false},{"pitch":45,"velocity":110,"startTime":75.3,"endTime":75.446875,"instrument":1,"program":0,"isDrum":false},{"pitch":33,"velocity":110,"startTime":75.45,"endTime":75.596875,"instrument":1,"program":0,"isDrum":false},{"pitch":45,"velocity":110,"startTime":75.45,"endTime":75.596875,"instrument":1,"program":0,"isDrum":false},{"pitch":38,"velocity":110,"startTime":75.6,"endTime":76,"instrument":1,"program":0,"isDrum":false},{"pitch":50,"velocity":110,"startTime":75.6,"endTime":76,"instrument":1,"program":0,"isDrum":false},{"pitch":38,"velocity":110,"startTime":76.05,"endTime":76.196875,"instrument":1,"program":0,"isDrum":false},{"pitch":50,"velocity":110,"startTime":76.05,"endTime":76.196875,"instrument":1,"program":0,"isDrum":false},{"pitch":38,"velocity":110,"startTime":76.2,"endTime":76.346875,"instrument":1,"program":0,"isDrum":false},{"pitch":50,"velocity":110,"startTime":76.2,"endTime":76.346875,"instrument":1,"program":0,"isDrum":false},{"pitch":38,"velocity":110,"startTime":76.35,"endTime":76.496875,"instrument":1,"program":0,"isDrum":false},{"pitch":50,"velocity":110,"startTime":76.35,"endTime":76.496875,"instrument":1,"program":0,"isDrum":false},{"pitch":26,"velocity":110,"startTime":76.5,"endTime":77.625,"instrument":1,"program":0,"isDrum":false},{"pitch":38,"velocity":110,"startTime":76.5,"endTime":77.625,"instrument":1,"program":0,"isDrum":false},{"pitch":62,"velocity":75,"startTime":2.6999999999999997,"endTime":3.525,"instrument":2,"program":48,"isDrum":false},{"pitch":62,"velocity":75,"startTime":3.5999999999999996,"endTime":4.425,"instrument":2,"program":48,"isDrum":false},{"pitch":70,"velocity":75,"startTime":4.5,"endTime":4.8999999999999995,"instrument":2,"program":48,"isDrum":false},{"pitch":69,"velocity":75,"startTime":4.95,"endTime":5.171874999999999,"instrument":2,"program":48,"isDrum":false},{"pitch":69,"velocity":75,"startTime":5.175,"endTime":5.396875,"instrument":2,"program":48,"isDrum":false},{"pitch":62,"velocity":75,"startTime":5.3999999999999995,"endTime":5.925,"instrument":2,"program":48,"isDrum":false},{"pitch":62,"velocity":75,"startTime":6,"endTime":6.146875,"instrument":2,"program":48,"isDrum":false},{"pitch":64,"velocity":75,"startTime":6.1499999999999995,"endTime":6.296874999999999,"instrument":2,"program":48,"isDrum":false},{"pitch":65,"velocity":75,"startTime":6.3,"endTime":6.825,"instrument":2,"program":48,"isDrum":false},{"pitch":65,"velocity":75,"startTime":6.8999999999999995,"endTime":7.046874999999999,"instrument":2,"program":48,"isDrum":false},{"pitch":67,"velocity":75,"startTime":7.05,"endTime":7.1968749999999995,"instrument":2,"program":48,"isDrum":false},{"pitch":64,"velocity":75,"startTime":7.199999999999999,"endTime":7.725,"instrument":2,"program":48,"isDrum":false},{"pitch":62,"velocity":75,"startTime":7.8,"endTime":7.9468749999999995,"instrument":2,"program":48,"isDrum":false},{"pitch":60,"velocity":75,"startTime":7.949999999999999,"endTime":8.096874999999999,"instrument":2,"program":48,"isDrum":false},{"pitch":60,"velocity":75,"startTime":8.1,"endTime":8.246875,"instrument":2,"program":48,"isDrum":false},{"pitch":62,"velocity":75,"startTime":8.25,"endTime":8.396875,"instrument":2,"program":48,"isDrum":false},{"pitch":57,"velocity":75,"startTime":8.7,"endTime":8.846874999999999,"instrument":2,"program":48,"isDrum":false},{"pitch":60,"velocity":75,"startTime":8.85,"endTime":8.996875,"instrument":2,"program":48,"isDrum":false},{"pitch":62,"velocity":75,"startTime":9,"endTime":9.525,"instrument":2,"program":48,"isDrum":false},{"pitch":62,"velocity":75,"startTime":9.6,"endTime":9.746875000000001,"instrument":2,"program":48,"isDrum":false},{"pitch":64,"velocity":75,"startTime":9.75,"endTime":9.896875,"instrument":2,"program":48,"isDrum":false},{"pitch":65,"velocity":75,"startTime":9.9,"endTime":10.424999999999999,"instrument":2,"program":48,"isDrum":false},{"pitch":65,"velocity":75,"startTime":10.5,"endTime":10.646875,"instrument":2,"program":48,"isDrum":false},{"pitch":67,"velocity":75,"startTime":10.65,"endTime":10.796875,"instrument":2,"program":48,"isDrum":false},{"pitch":64,"velocity":75,"startTime":10.799999999999999,"endTime":11.325,"instrument":2,"program":48,"isDrum":false},{"pitch":62,"velocity":75,"startTime":11.4,"endTime":11.546875,"instrument":2,"program":48,"isDrum":false},{"pitch":60,"velocity":75,"startTime":11.549999999999999,"endTime":11.696875,"instrument":2,"program":48,"isDrum":false},{"pitch":62,"velocity":75,"startTime":11.7,"endTime":11.950000000000001,"instrument":2,"program":48,"isDrum":false},{"pitch":57,"velocity":75,"startTime":12.299999999999999,"endTime":12.446875,"instrument":2,"program":48,"isDrum":false},{"pitch":60,"velocity":75,"startTime":12.45,"endTime":12.596875,"instrument":2,"program":48,"isDrum":false},{"pitch":62,"velocity":75,"startTime":12.6,"endTime":13.125,"instrument":2,"program":48,"isDrum":false},{"pitch":62,"velocity":75,"startTime":13.2,"endTime":13.346875,"instrument":2,"program":48,"isDrum":false},{"pitch":65,"velocity":75,"startTime":13.35,"endTime":13.496875000000001,"instrument":2,"program":48,"isDrum":false},{"pitch":67,"velocity":75,"startTime":13.5,"endTime":14.025,"instrument":2,"program":48,"isDrum":false},{"pitch":67,"velocity":75,"startTime":14.1,"endTime":14.246875000000001,"instrument":2,"program":48,"isDrum":false},{"pitch":69,"velocity":75,"startTime":14.25,"endTime":14.396875,"instrument":2,"program":48,"isDrum":false},{"pitch":70,"velocity":75,"startTime":14.399999999999999,"endTime":14.924999999999999,"instrument":2,"program":48,"isDrum":false},{"pitch":69,"velocity":75,"startTime":15,"endTime":15.146875,"instrument":2,"program":48,"isDrum":false},{"pitch":67,"velocity":75,"startTime":15.149999999999999,"endTime":15.296875,"instrument":2,"program":48,"isDrum":false},{"pitch":69,"velocity":75,"startTime":15.299999999999999,"endTime":15.446875,"instrument":2,"program":48,"isDrum":false},{"pitch":62,"velocity":75,"startTime":15.45,"endTime":15.7,"instrument":2,"program":48,"isDrum":false},{"pitch":62,"velocity":75,"startTime":15.899999999999999,"endTime":16.046875,"instrument":2,"program":48,"isDrum":false},{"pitch":64,"velocity":75,"startTime":16.05,"endTime":16.196875,"instrument":2,"program":48,"isDrum":false},{"pitch":65,"velocity":75,"startTime":16.2,"endTime":16.724999999999998,"instrument":2,"program":48,"isDrum":false},{"pitch":67,"velocity":75,"startTime":16.8,"endTime":17.05,"instrument":2,"program":48,"isDrum":false},{"pitch":69,"velocity":75,"startTime":17.099999999999998,"endTime":17.246875,"instrument":2,"program":48,"isDrum":false},{"pitch":62,"velocity":75,"startTime":17.25,"endTime":17.5,"instrument":2,"program":48,"isDrum":false},{"pitch":62,"velocity":75,"startTime":17.7,"endTime":17.846875,"instrument":2,"program":48,"isDrum":false},{"pitch":65,"velocity":75,"startTime":17.849999999999998,"endTime":17.996875,"instrument":2,"program":48,"isDrum":false},{"pitch":64,"velocity":75,"startTime":18,"endTime":18.525,"instrument":2,"program":48,"isDrum":false},{"pitch":65,"velocity":75,"startTime":18.599999999999998,"endTime":18.746875,"instrument":2,"program":48,"isDrum":false},{"pitch":62,"velocity":75,"startTime":18.75,"endTime":18.896875,"instrument":2,"program":48,"isDrum":false},{"pitch":64,"velocity":75,"startTime":18.9,"endTime":19.299999999999997,"instrument":2,"program":48,"isDrum":false},{"pitch":69,"velocity":75,"startTime":19.5,"endTime":19.646874999999998,"instrument":2,"program":48,"isDrum":false},{"pitch":72,"velocity":75,"startTime":19.65,"endTime":19.796874999999996,"instrument":2,"program":48,"isDrum":false},{"pitch":74,"velocity":75,"startTime":19.8,"endTime":20.325,"instrument":2,"program":48,"isDrum":false},{"pitch":74,"velocity":75,"startTime":20.4,"endTime":20.546874999999996,"instrument":2,"program":48,"isDrum":false},{"pitch":76,"velocity":75,"startTime":20.55,"endTime":20.696875,"instrument":2,"program":48,"isDrum":false},{"pitch":77,"velocity":75,"startTime":20.7,"endTime":21.224999999999998,"instrument":2,"program":48,"isDrum":false},{"pitch":77,"velocity":75,"startTime":21.3,"endTime":21.446875,"instrument":2,"program":48,"isDrum":false},{"pitch":79,"velocity":75,"startTime":21.45,"endTime":21.596874999999997,"instrument":2,"program":48,"isDrum":false},{"pitch":76,"velocity":75,"startTime":21.599999999999998,"endTime":22.125,"instrument":2,"program":48,"isDrum":false},{"pitch":74,"velocity":75,"startTime":22.2,"endTime":22.346874999999997,"instrument":2,"program":48,"isDrum":false},{"pitch":72,"velocity":75,"startTime":22.349999999999998,"endTime":22.496875,"instrument":2,"program":48,"isDrum":false},{"pitch":72,"velocity":75,"startTime":22.5,"endTime":22.646874999999998,"instrument":2,"program":48,"isDrum":false},{"pitch":74,"velocity":75,"startTime":22.65,"endTime":23.049999999999997,"instrument":2,"program":48,"isDrum":false},{"pitch":69,"velocity":75,"startTime":23.099999999999998,"endTime":23.246875,"instrument":2,"program":48,"isDrum":false},{"pitch":72,"velocity":75,"startTime":23.25,"endTime":23.396874999999998,"instrument":2,"program":48,"isDrum":false},{"pitch":74,"velocity":75,"startTime":23.4,"endTime":23.925,"instrument":2,"program":48,"isDrum":false},{"pitch":74,"velocity":75,"startTime":24,"endTime":24.146874999999998,"instrument":2,"program":48,"isDrum":false},{"pitch":76,"velocity":75,"startTime":24.15,"endTime":24.296874999999996,"instrument":2,"program":48,"isDrum":false},{"pitch":77,"velocity":75,"startTime":24.3,"endTime":24.825,"instrument":2,"program":48,"isDrum":false},{"pitch":77,"velocity":75,"startTime":24.9,"endTime":25.046874999999996,"instrument":2,"program":48,"isDrum":false},{"pitch":79,"velocity":75,"startTime":25.05,"endTime":25.196875,"instrument":2,"program":48,"isDrum":false},{"pitch":76,"velocity":75,"startTime":25.2,"endTime":25.724999999999998,"instrument":2,"program":48,"isDrum":false},{"pitch":74,"velocity":75,"startTime":25.8,"endTime":25.946875,"instrument":2,"program":48,"isDrum":false},{"pitch":72,"velocity":75,"startTime":25.95,"endTime":26.096874999999997,"instrument":2,"program":48,"isDrum":false},{"pitch":74,"velocity":75,"startTime":26.099999999999998,"endTime":26.349999999999998,"instrument":2,"program":48,"isDrum":false},{"pitch":69,"velocity":75,"startTime":26.7,"endTime":26.846874999999997,"instrument":2,"program":48,"isDrum":false},{"pitch":72,"velocity":75,"startTime":26.849999999999998,"endTime":26.996875,"instrument":2,"program":48,"isDrum":false},{"pitch":74,"velocity":75,"startTime":27,"endTime":27.525,"instrument":2,"program":48,"isDrum":false},{"pitch":74,"velocity":75,"startTime":27.599999999999998,"endTime":27.746875,"instrument":2,"program":48,"isDrum":false},{"pitch":77,"velocity":75,"startTime":27.75,"endTime":27.896874999999998,"instrument":2,"program":48,"isDrum":false},{"pitch":79,"velocity":75,"startTime":27.9,"endTime":28.425,"instrument":2,"program":48,"isDrum":false},{"pitch":79,"velocity":75,"startTime":28.5,"endTime":28.646874999999998,"instrument":2,"program":48,"isDrum":false},{"pitch":81,"velocity":75,"startTime":28.65,"endTime":28.796874999999996,"instrument":2,"program":48,"isDrum":false},{"pitch":82,"velocity":75,"startTime":28.799999999999997,"endTime":29.325,"instrument":2,"program":48,"isDrum":false},{"pitch":81,"velocity":75,"startTime":29.4,"endTime":29.546874999999996,"instrument":2,"program":48,"isDrum":false},{"pitch":79,"velocity":75,"startTime":29.549999999999997,"endTime":29.696875,"instrument":2,"program":48,"isDrum":false},{"pitch":81,"velocity":75,"startTime":29.7,"endTime":29.846874999999997,"instrument":2,"program":48,"isDrum":false},{"pitch":74,"velocity":75,"startTime":29.849999999999998,"endTime":30.099999999999998,"instrument":2,"program":48,"isDrum":false},{"pitch":74,"velocity":75,"startTime":30.299999999999997,"endTime":30.446875,"instrument":2,"program":48,"isDrum":false},{"pitch":76,"velocity":75,"startTime":30.45,"endTime":30.596874999999997,"instrument":2,"program":48,"isDrum":false},{"pitch":77,"velocity":75,"startTime":30.599999999999998,"endTime":31.125,"instrument":2,"program":48,"isDrum":false},{"pitch":79,"velocity":75,"startTime":31.2,"endTime":31.449999999999996,"instrument":2,"program":48,"isDrum":false},{"pitch":81,"velocity":75,"startTime":31.5,"endTime":31.646874999999998,"instrument":2,"program":48,"isDrum":false},{"pitch":74,"velocity":75,"startTime":31.65,"endTime":31.9,"instrument":2,"program":48,"isDrum":false},{"pitch":74,"velocity":75,"startTime":32.1,"endTime":32.246874999999996,"instrument":2,"program":48,"isDrum":false},{"pitch":77,"velocity":75,"startTime":32.25,"endTime":32.396874999999994,"instrument":2,"program":48,"isDrum":false},{"pitch":76,"velocity":75,"startTime":32.4,"endTime":32.925,"instrument":2,"program":48,"isDrum":false},{"pitch":74,"velocity":75,"startTime":33,"endTime":33.146874999999994,"instrument":2,"program":48,"isDrum":false},{"pitch":72,"velocity":75,"startTime":33.15,"endTime":33.296875,"instrument":2,"program":48,"isDrum":false},{"pitch":74,"velocity":75,"startTime":33.3,"endTime":33.824999999999996,"instrument":2,"program":48,"isDrum":false},{"pitch":76,"velocity":75,"startTime":33.9,"endTime":34.15,"instrument":2,"program":48,"isDrum":false},{"pitch":72,"velocity":75,"startTime":34.199999999999996,"endTime":34.449999999999996,"instrument":2,"program":48,"isDrum":false},{"pitch":77,"velocity":75,"startTime":34.199999999999996,"endTime":34.449999999999996,"instrument":2,"program":48,"isDrum":false},{"pitch":77,"velocity":75,"startTime":34.5,"endTime":34.75,"instrument":2,"program":48,"isDrum":false},{"pitch":79,"velocity":75,"startTime":34.8,"endTime":35.05,"instrument":2,"program":48,"isDrum":false},{"pitch":81,"velocity":75,"startTime":35.1,"endTime":35.625,"instrument":2,"program":48,"isDrum":false},{"pitch":77,"velocity":75,"startTime":35.699999999999996,"endTime":35.949999999999996,"instrument":2,"program":48,"isDrum":false},{"pitch":82,"velocity":75,"startTime":36.9,"endTime":37.725,"instrument":2,"program":48,"isDrum":false},{"pitch":60,"velocity":75,"startTime":38.699999999999996,"endTime":39.1,"instrument":2,"program":48,"isDrum":false},{"pitch":64,"velocity":75,"startTime":38.699999999999996,"endTime":39.1,"instrument":2,"program":48,"isDrum":false},{"pitch":62,"velocity":75,"startTime":39.15,"endTime":39.550000000000004,"instrument":2,"program":48,"isDrum":false},{"pitch":65,"velocity":75,"startTime":39.6,"endTime":40.425,"instrument":2,"program":48,"isDrum":false},{"pitch":69,"velocity":75,"startTime":40.5,"endTime":41.324999999999996,"instrument":2,"program":48,"isDrum":false},{"pitch":70,"velocity":75,"startTime":41.4,"endTime":41.546875,"instrument":2,"program":48,"isDrum":false},{"pitch":67,"velocity":75,"startTime":42.3,"endTime":43.125,"instrument":2,"program":48,"isDrum":false},{"pitch":69,"velocity":75,"startTime":43.199999999999996,"endTime":43.346875000000004,"instrument":2,"program":48,"isDrum":false},{"pitch":69,"velocity":75,"startTime":44.1,"endTime":44.925,"instrument":2,"program":48,"isDrum":false},{"pitch":70,"velocity":75,"startTime":45,"endTime":45.146875,"instrument":2,"program":48,"isDrum":false},{"pitch":67,"velocity":75,"startTime":45.9,"endTime":46.15,"instrument":2,"program":48,"isDrum":false},{"pitch":65,"velocity":75,"startTime":46.199999999999996,"endTime":46.45,"instrument":2,"program":48,"isDrum":false},{"pitch":64,"velocity":75,"startTime":46.5,"endTime":46.75,"instrument":2,"program":48,"isDrum":false},{"pitch":62,"velocity":75,"startTime":46.8,"endTime":47.050000000000004,"instrument":2,"program":48,"isDrum":false},{"pitch":62,"velocity":75,"startTime":47.4,"endTime":47.546875,"instrument":2,"program":48,"isDrum":false},{"pitch":64,"velocity":75,"startTime":47.55,"endTime":47.696875,"instrument":2,"program":48,"isDrum":false},{"pitch":57,"velocity":75,"startTime":47.699999999999996,"endTime":48.525,"instrument":2,"program":48,"isDrum":false},{"pitch":65,"velocity":75,"startTime":47.699999999999996,"endTime":48.525,"instrument":2,"program":48,"isDrum":false},{"pitch":67,"velocity":75,"startTime":48.6,"endTime":49.125,"instrument":2,"program":48,"isDrum":false},{"pitch":64,"velocity":75,"startTime":49.199999999999996,"endTime":49.45,"instrument":2,"program":48,"isDrum":false},{"pitch":65,"velocity":75,"startTime":49.5,"endTime":49.75,"instrument":2,"program":48,"isDrum":false},{"pitch":67,"velocity":75,"startTime":49.8,"endTime":50.050000000000004,"instrument":2,"program":48,"isDrum":false},{"pitch":69,"velocity":75,"startTime":50.1,"endTime":50.35,"instrument":2,"program":48,"isDrum":false},{"pitch":60,"velocity":75,"startTime":50.4,"endTime":51.225,"instrument":2,"program":48,"isDrum":false},{"pitch":67,"velocity":75,"startTime":50.4,"endTime":51.225,"instrument":2,"program":48,"isDrum":false},{"pitch":69,"velocity":75,"startTime":51.3,"endTime":51.824999999999996,"instrument":2,"program":48,"isDrum":false},{"pitch":67,"velocity":75,"startTime":51.9,"endTime":52.046875,"instrument":2,"program":48,"isDrum":false},{"pitch":65,"velocity":75,"startTime":52.05,"endTime":52.196875,"instrument":2,"program":48,"isDrum":false},{"pitch":64,"velocity":75,"startTime":52.199999999999996,"endTime":52.45,"instrument":2,"program":48,"isDrum":false},{"pitch":65,"velocity":75,"startTime":52.5,"endTime":52.75,"instrument":2,"program":48,"isDrum":false},{"pitch":64,"velocity":75,"startTime":52.8,"endTime":53.050000000000004,"instrument":2,"program":48,"isDrum":false},{"pitch":62,"velocity":75,"startTime":53.1,"endTime":53.625,"instrument":2,"program":48,"isDrum":false},{"pitch":64,"velocity":75,"startTime":53.699999999999996,"endTime":53.846875000000004,"instrument":2,"program":48,"isDrum":false},{"pitch":60,"velocity":75,"startTime":53.85,"endTime":53.996875,"instrument":2,"program":48,"isDrum":false},{"pitch":62,"velocity":75,"startTime":54,"endTime":54.525,"instrument":2,"program":48,"isDrum":false},{"pitch":74,"velocity":75,"startTime":54.6,"endTime":54.746875,"instrument":2,"program":48,"isDrum":false},{"pitch":76,"velocity":75,"startTime":54.75,"endTime":54.896875,"instrument":2,"program":48,"isDrum":false},{"pitch":69,"velocity":75,"startTime":54.9,"endTime":55.725,"instrument":2,"program":48,"isDrum":false},{"pitch":77,"velocity":75,"startTime":54.9,"endTime":55.725,"instrument":2,"program":48,"isDrum":false},{"pitch":79,"velocity":75,"startTime":55.8,"endTime":56.050000000000004,"instrument":2,"program":48,"isDrum":false},{"pitch":77,"velocity":75,"startTime":56.1,"endTime":56.35,"instrument":2,"program":48,"isDrum":false},{"pitch":79,"velocity":75,"startTime":56.4,"endTime":56.65,"instrument":2,"program":48,"isDrum":false},{"pitch":81,"velocity":75,"startTime":56.699999999999996,"endTime":56.95,"instrument":2,"program":48,"isDrum":false},{"pitch":79,"velocity":75,"startTime":57,"endTime":57.25,"instrument":2,"program":48,"isDrum":false},{"pitch":77,"velocity":75,"startTime":57.3,"endTime":57.550000000000004,"instrument":2,"program":48,"isDrum":false},{"pitch":65,"velocity":75,"startTime":57.599999999999994,"endTime":58.125,"instrument":2,"program":48,"isDrum":false},{"pitch":74,"velocity":75,"startTime":57.599999999999994,"endTime":58.125,"instrument":2,"program":48,"isDrum":false},{"pitch":76,"velocity":75,"startTime":58.199999999999996,"endTime":58.45,"instrument":2,"program":48,"isDrum":false},{"pitch":77,"velocity":75,"startTime":58.5,"endTime":58.75,"instrument":2,"program":48,"isDrum":false},{"pitch":79,"velocity":75,"startTime":58.8,"endTime":59.05,"instrument":2,"program":48,"isDrum":false},{"pitch":81,"velocity":75,"startTime":59.099999999999994,"endTime":59.35,"instrument":2,"program":48,"isDrum":false},{"pitch":82,"velocity":75,"startTime":59.4,"endTime":59.65,"instrument":2,"program":48,"isDrum":false},{"pitch":74,"velocity":75,"startTime":59.699999999999996,"endTime":59.95,"instrument":2,"program":48,"isDrum":false},{"pitch":79,"velocity":75,"startTime":60,"endTime":60.25,"instrument":2,"program":48,"isDrum":false},{"pitch":77,"velocity":75,"startTime":60.3,"endTime":60.824999999999996,"instrument":2,"program":48,"isDrum":false},{"pitch":79,"velocity":75,"startTime":60.9,"endTime":61.046875,"instrument":2,"program":48,"isDrum":false},{"pitch":76,"velocity":75,"startTime":61.05,"endTime":61.196875,"instrument":2,"program":48,"isDrum":false},{"pitch":74,"velocity":75,"startTime":61.199999999999996,"endTime":62.025,"instrument":2,"program":48,"isDrum":false},{"pitch":81,"velocity":75,"startTime":62.099999999999994,"endTime":62.925,"instrument":2,"program":48,"isDrum":false},{"pitch":82,"velocity":75,"startTime":63,"endTime":63.824999999999996,"instrument":2,"program":48,"isDrum":false},{"pitch":81,"velocity":75,"startTime":63.9,"endTime":64.15,"instrument":2,"program":48,"isDrum":false},{"pitch":81,"velocity":75,"startTime":64.2,"endTime":64.45,"instrument":2,"program":48,"isDrum":false},{"pitch":81,"velocity":75,"startTime":64.5,"endTime":64.75,"instrument":2,"program":48,"isDrum":false},{"pitch":81,"velocity":75,"startTime":64.8,"endTime":64.946875,"instrument":2,"program":48,"isDrum":false},{"pitch":79,"velocity":75,"startTime":64.95,"endTime":65.35,"instrument":2,"program":48,"isDrum":false},{"pitch":79,"velocity":75,"startTime":65.7,"endTime":66.52499999999999,"instrument":2,"program":48,"isDrum":false},{"pitch":77,"velocity":75,"startTime":66.6,"endTime":67.425,"instrument":2,"program":48,"isDrum":false},{"pitch":77,"velocity":75,"startTime":67.5,"endTime":67.75,"instrument":2,"program":48,"isDrum":false},{"pitch":79,"velocity":75,"startTime":67.8,"endTime":68.05,"instrument":2,"program":48,"isDrum":false},{"pitch":76,"velocity":75,"startTime":68.1,"endTime":68.35,"instrument":2,"program":48,"isDrum":false},{"pitch":74,"velocity":75,"startTime":68.39999999999999,"endTime":69.225,"instrument":2,"program":48,"isDrum":false},{"pitch":81,"velocity":75,"startTime":69.3,"endTime":70.125,"instrument":2,"program":48,"isDrum":false},{"pitch":82,"velocity":75,"startTime":70.2,"endTime":71.02499999999999,"instrument":2,"program":48,"isDrum":false},{"pitch":81,"velocity":75,"startTime":71.1,"endTime":71.35,"instrument":2,"program":48,"isDrum":false},{"pitch":81,"velocity":75,"startTime":71.39999999999999,"endTime":71.65,"instrument":2,"program":48,"isDrum":false},{"pitch":84,"velocity":75,"startTime":71.7,"endTime":71.95,"instrument":2,"program":48,"isDrum":false},{"pitch":81,"velocity":75,"startTime":72,"endTime":72.146875,"instrument":2,"program":48,"isDrum":false},{"pitch":79,"velocity":75,"startTime":72.14999999999999,"endTime":72.55,"instrument":2,"program":48,"isDrum":false},{"pitch":79,"velocity":75,"startTime":72.89999999999999,"endTime":73.725,"instrument":2,"program":48,"isDrum":false},{"pitch":77,"velocity":75,"startTime":73.8,"endTime":74.625,"instrument":2,"program":48,"isDrum":false},{"pitch":77,"velocity":75,"startTime":74.7,"endTime":74.95,"instrument":2,"program":48,"isDrum":false},{"pitch":79,"velocity":75,"startTime":75,"endTime":75.25,"instrument":2,"program":48,"isDrum":false},{"pitch":76,"velocity":75,"startTime":75.3,"endTime":75.55,"instrument":2,"program":48,"isDrum":false},{"pitch":74,"velocity":75,"startTime":75.6,"endTime":76.425,"instrument":2,"program":48,"isDrum":false}],"totalTime":77.625,"sourceInfo":{"encodingType":"MIDI","parser":"TONEJS_MIDI_CONVERT"}}